<?xml version="1.0" encoding="UTF-8" standalone="no"?>
<!-- Created with Inkscape (http://www.inkscape.org/) -->

<svg
   width="415.82101mm"
   height="438.52594mm"
   viewBox="0 0 415.82101 438.52594"
   version="1.1"
   id="svg1"
   inkscape:version="1.3 (0e150ed, 2023-07-21)"
   sodipodi:docname="dolphin.svg"
   xmlns:inkscape="http://www.inkscape.org/namespaces/inkscape"
   xmlns:sodipodi="http://sodipodi.sourceforge.net/DTD/sodipodi-0.dtd"
   xmlns:xlink="http://www.w3.org/1999/xlink"
   xmlns="http://www.w3.org/2000/svg"
   xmlns:svg="http://www.w3.org/2000/svg">
  <sodipodi:namedview
     id="namedview1"
     pagecolor="#ffffff"
     bordercolor="#000000"
     borderopacity="0.25"
     inkscape:showpageshadow="2"
     inkscape:pageopacity="0.0"
     inkscape:pagecheckerboard="0"
     inkscape:deskcolor="#d1d1d1"
     inkscape:document-units="mm"
     inkscape:zoom="0.11237879"
     inkscape:cx="-329.24364"
     inkscape:cy="1032.2233"
     inkscape:window-width="1312"
     inkscape:window-height="449"
     inkscape:window-x="0"
     inkscape:window-y="43"
     inkscape:window-maximized="0"
     inkscape:current-layer="layer1" />
  <defs
     id="defs1">
    <linearGradient
       inkscape:collect="always"
       xlink:href="#linearGradient46"
       id="linearGradient47"
       x1="-51.168728"
       y1="58.491112"
       x2="18.591318"
       y2="5.6171098"
       gradientUnits="userSpaceOnUse" />
    <linearGradient
       id="linearGradient46"
       inkscape:collect="always">
      <stop
         style="stop-color:#f8bed7;stop-opacity:1;"
         offset="0"
         id="stop46" />
      <stop
         style="stop-color:#f5b0ce;stop-opacity:1;"
         offset="1"
         id="stop47" />
    </linearGradient>
    <linearGradient
       inkscape:collect="always"
       xlink:href="#linearGradient43"
       id="linearGradient44"
       x1="-36.865761"
       y1="193.66281"
       x2="68.368698"
       y2="122.44606"
       gradientUnits="userSpaceOnUse" />
    <linearGradient
       id="linearGradient43"
       inkscape:collect="always">
      <stop
         style="stop-color:#ff8fc0;stop-opacity:1;"
         offset="0"
         id="stop43" />
      <stop
         style="stop-color:#ff95c1;stop-opacity:1;"
         offset="0.82761568"
         id="stop45" />
      <stop
         style="stop-color:#ff9cc3;stop-opacity:0;"
         offset="1"
         id="stop44" />
    </linearGradient>
    <linearGradient
       inkscape:collect="always"
       xlink:href="#linearGradient52"
       id="linearGradient53"
       x1="211.9334"
       y1="114.7673"
       x2="210.31532"
       y2="78.060883"
       gradientUnits="userSpaceOnUse" />
    <linearGradient
       id="linearGradient52"
       inkscape:collect="always">
      <stop
         style="stop-color:#9e295e;stop-opacity:1;"
         offset="0"
         id="stop52" />
      <stop
         style="stop-color:#d03f76;stop-opacity:1;"
         offset="0.57397258"
         id="stop54" />
      <stop
         style="stop-color:#9e295e;stop-opacity:1;"
         offset="1"
         id="stop53" />
    </linearGradient>
    <linearGradient
       inkscape:collect="always"
       xlink:href="#linearGradient26"
       id="linearGradient27"
       x1="20.405409"
       y1="303.1572"
       x2="48.62281"
       y2="343.32959"
       gradientUnits="userSpaceOnUse" />
    <linearGradient
       id="linearGradient26"
       inkscape:collect="always">
      <stop
         style="stop-color:#bc2576;stop-opacity:1;"
         offset="0"
         id="stop26" />
      <stop
         style="stop-color:#dd3d7a;stop-opacity:1;"
         offset="1"
         id="stop27" />
    </linearGradient>
    <linearGradient
       inkscape:collect="always"
       xlink:href="#linearGradient28"
       id="linearGradient29"
       x1="-82.597435"
       y1="342.51532"
       x2="-81.399124"
       y2="321.8443"
       gradientUnits="userSpaceOnUse"
       gradientTransform="translate(0.14979016)" />
    <linearGradient
       id="linearGradient28"
       inkscape:collect="always">
      <stop
         style="stop-color:#fd69a8;stop-opacity:1;"
         offset="0"
         id="stop28" />
      <stop
         style="stop-color:#fd69a8;stop-opacity:0;"
         offset="1"
         id="stop29" />
    </linearGradient>
    <linearGradient
       inkscape:collect="always"
       xlink:href="#linearGradient36"
       id="linearGradient37"
       x1="206.40059"
       y1="161.28671"
       x2="173.31638"
       y2="204.2355"
       gradientUnits="userSpaceOnUse" />
    <linearGradient
       id="linearGradient36"
       inkscape:collect="always">
      <stop
         style="stop-color:#790c47;stop-opacity:1;"
         offset="0"
         id="stop36" />
      <stop
         style="stop-color:#851350;stop-opacity:0;"
         offset="0.7397337"
         id="stop38" />
    </linearGradient>
    <radialGradient
       inkscape:collect="always"
       xlink:href="#linearGradient9"
       id="radialGradient15"
       cx="121.63847"
       cy="324.5513"
       fx="121.63847"
       fy="324.5513"
       r="120.91066"
       gradientTransform="matrix(1.8034695,-0.08280812,0.04569201,0.99512151,-125.81073,-148.59967)"
       gradientUnits="userSpaceOnUse" />
    <linearGradient
       id="linearGradient9"
       inkscape:collect="always">
      <stop
         style="stop-color:#7dbdd1;stop-opacity:1;"
         offset="0"
         id="stop9" />
      <stop
         style="stop-color:#6abcd1;stop-opacity:1;"
         offset="0.43125644"
         id="stop15" />
      <stop
         style="stop-color:#61dae4;stop-opacity:1;"
         offset="0.62672782"
         id="stop14" />
      <stop
         style="stop-color:#5fcdda;stop-opacity:1;"
         offset="1"
         id="stop10" />
    </linearGradient>
    <linearGradient
       inkscape:collect="always"
       xlink:href="#swatch11"
       id="linearGradient12"
       gradientUnits="userSpaceOnUse"
       x1="5.5430579"
       y1="215.17433"
       x2="105.54002"
       y2="118.72776"
       spreadMethod="pad" />
    <linearGradient
       id="swatch11">
      <stop
         style="stop-color:#6094bf;stop-opacity:0;"
         offset="0"
         id="stop11" />
      <stop
         style="stop-color:#6094bf;stop-opacity:1;"
         offset="0.57175374"
         id="stop13" />
      <stop
         style="stop-color:#6094bf;stop-opacity:1;"
         offset="1"
         id="stop12" />
    </linearGradient>
    <linearGradient
       inkscape:collect="always"
       xlink:href="#linearGradient32"
       id="linearGradient33"
       x1="143.74567"
       y1="51.240341"
       x2="130.51927"
       y2="69.622894"
       gradientUnits="userSpaceOnUse" />
    <linearGradient
       id="linearGradient32"
       inkscape:collect="always">
      <stop
         style="stop-color:#698eb6;stop-opacity:1;"
         offset="0"
         id="stop32" />
      <stop
         style="stop-color:#314d84;stop-opacity:1;"
         offset="1"
         id="stop33" />
    </linearGradient>
  </defs>
  <g
     inkscape:label="Layer 1"
     inkscape:groupmode="layer"
     id="layer1"
     transform="translate(103.45208,70.64375)">
    <g
       id="g55"
       inkscape:label="dolphin"
       style="display:inline"
       transform="translate(-2.85135,1.241026)">
      <g
         id="g5"
         style="display:inline">
        <path
           id="path41"
           style="display:inline;opacity:1;fill:#ffffff;fill-opacity:1;stroke-width:0.264583"
           inkscape:label="halo"
           d="m 16.542969,-71.884766 c -4.274162,0.13781 -8.5750316,0.01802 -12.808594,0.726563 -7.0408015,1.006866 -13.877136,3.046489 -20.589633,5.349673 -5.479913,2.121486 -10.595803,5.064321 -15.671291,7.998788 -4.758495,3.138059 -9.281926,6.628208 -13.647982,10.285898 -2.733016,2.549201 -5.416563,5.595422 -5.988817,9.42267 -0.133864,3.270779 0.941787,6.741098 3.528582,8.878518 2.952643,2.53358 7.240549,2.897466 10.856796,1.785896 2.514868,-0.625551 5.027856,-1.264654 7.568986,-1.776131 0.221618,-0.04159 1.093731,-0.219414 1.581133,-0.297009 3.814835,-0.661341 7.738736,-0.90295 11.583293,-0.403564 2.677494,0.9943 5.411972,2.025052 7.7269354,3.729499 1.9871273,1.544043 3.8420808,3.26817 5.3350166,5.303392 2.1410054,2.673701 3.33280281,6.048718 3.37546166,9.471663 0.11739907,4.6058389 -0.76084396,9.1640167 -0.87137126,13.7624256 -6.1859999,3.5213708 -12.1751714,7.3848926 -18.0277534,11.4317424 -10.021886,7.405759 -19.137163,15.94301 -28.050372,24.624898 -8.728026,9.834791 -16.339869,20.585416 -23.841797,31.363282 -3.027202,5.220374 -6.124599,10.401963 -9.108022,15.646528 -5.471208,10.319526 -9.152601,21.446244 -12.816422,32.498854 -3.084881,11.24677 -5.081784,22.79297 -6.009149,34.41516 0.114902,10.22223 -0.06412,20.52227 1.743198,30.62585 1.079845,6.22613 2.434281,12.40167 3.772102,18.57586 2.3177,9.84888 6.17403,19.23722 9.899612,28.61508 3.126158,6.83023 6.199867,13.68624 9.358714,20.50041 3.335187,6.23324 6.612328,12.49925 9.983683,18.71208 3.983428,6.6643 7.91644,13.3593 11.932144,20.00393 -8.940463,3.81113 -17.119353,9.38635 -23.902787,16.34884 -9.754227,9.92794 -16.734581,22.28932 -21.595018,35.25771 -1.269606,4.88853 -2.708187,9.8709 -2.424067,14.97353 0.19541,3.33184 1.716395,6.7044 4.571012,8.56844 1.632476,1.10393 3.543581,1.83026 5.524732,1.89012 5.414396,0.48854 10.853527,0.091 16.273179,-0.074 10.87286,-0.63662 21.6258,-2.48702 32.333876,-4.39466 9.795282,-2.12096 19.170142,-6.18559 27.437488,-11.84836 0.512343,-0.3091 1.112872,0.41016 1.662289,0.5334 4.5583974,2.17121 9.1508284,4.2757 13.75842238,6.33769 8.35150742,3.23873 17.16162162,5.18324 26.02721462,6.35406 7.33299,0.89921 14.813206,1.33719 22.143125,0.18089 4.047914,-0.69266 8.260265,-1.93856 11.265519,-4.87864 1.870512,-1.91435 2.511909,-4.68902 2.330849,-7.29659 0.158371,-4.71302 -0.901333,-9.36987 -2.188835,-13.87411 -3.021577,-9.94178 -8.238791,-19.13691 -14.693418,-27.24471 -5.179194,-6.42494 -11.786226,-11.56885 -18.818308,-15.82169 -3.561283,-2.13194 -7.217263,-4.11915 -10.957226,-5.91428 -2.227865,-0.81836 -4.455729,-1.63672 -6.683594,-2.45507 3.261051,-7.74261 8.493164,-14.54364 14.735182,-20.12291 3.113836,-2.80721 6.283597,-5.56977 9.771363,-7.91034 4.371801,-3.04467 9.070583,-5.5686 13.661424,-8.25777 6.01255,-3.32589 12.217453,-6.29225 18.453207,-9.17233 12.332983,-5.54981 24.654369,-11.125 36.938699,-16.78181 4.11548,-1.91644 8.28159,-3.72936 12.36493,-5.71147 7.44709,-3.88913 14.93007,-7.71131 22.35445,-11.64281 4.31642,-2.38873 8.63284,-4.77746 12.94926,-7.16619 2.8151,2.19434 5.57873,4.46336 8.42578,6.61133 12.11908,7.3827 24.39198,14.59136 37.3318,20.45576 6.75571,2.97988 13.73491,5.74767 21.10375,6.70439 4.78723,0.59828 9.99211,0.12513 14.03772,-2.7243 3.92441,-2.69321 6.1333,-7.20218 7.22039,-11.72025 0.36601,-1.68751 0.26933,-3.4475 0.32197,-5.16873 -0.13884,-10.08179 -2.42653,-20.06465 -6.07913,-29.43555 -3.14452,-7.98539 -7.40515,-15.55051 -12.76462,-22.26171 10.57869,-0.40641 21.25579,-1.38099 31.40815,-4.54374 5.23348,-1.61009 10.17024,-4.06462 14.77739,-7.00704 2.12878,-1.32247 4.53438,-2.84887 7.01953,-2.86719 7.04365,-0.36981 14.13715,-0.91988 20.95658,-2.83231 1.87215,-0.53345 3.77237,-1.0436 5.56593,-1.79254 4.03599,-2.19547 7.83191,-4.99255 10.56734,-8.73062 1.63302,-2.22106 3.03269,-4.63613 4.11174,-7.16594 1.17516,-4.35718 0.44063,-9.04381 -1.47932,-13.07641 -2.10131,-4.53914 -5.29844,-8.43475 -8.18149,-12.48234 -4.14724,-5.09698 -10.08002,-8.3631 -16.19507,-10.51945 -4.99826,-1.826721 -10.21142,-2.990289 -15.21546,-4.792745 C 268.73675,83.78792 264.8479,80.104147 260.5,77.189443 260.496,71.415474 260.00789,65.594305 258.34409,60.040956 255.69186,50.38105 252.11407,40.882598 246.79638,32.355718 242.49805,25.674865 237.47658,19.489827 232.26367,13.507802 226.59481,7.3131657 219.62231,2.5376675 212.74891,-2.2013797 c -7.38427,-4.4989288 -14.94403,-8.7669933 -22.91204,-12.1501393 -8.65201,-3.40108 -17.76488,-5.524191 -26.94986,-6.859731 -9.70238,-0.956028 -19.42923,-2.066916 -29.19559,-1.775194 -9.80186,-0.166693 -19.50229,1.813188 -29.3047,1.597762 -7.042738,-6.521287 -13.181567,-13.926723 -19.847601,-20.815742 -2.457595,-2.415729 -5.209663,-4.507847 -7.800744,-6.776388 -1.742912,-1.446676 -3.387172,-3.024386 -5.343882,-4.187192 -2.386668,-1.545069 -4.692983,-3.222397 -7.131768,-4.681723 -3.444544,-1.865839 -6.856362,-3.802844 -10.321085,-5.624805 -3.881279,-1.431529 -7.741868,-2.930712 -11.636341,-4.31926 -4.110908,-0.938837 -8.210551,-1.947463 -12.328622,-2.842308 -4.478238,-0.405109 -8.953454,-0.897746 -13.433708,-1.248676 z m 11.371093,15.189454 c 3.611206,0.87276 7.252993,1.64516 10.845067,2.580703 2.845273,1.110475 5.744222,2.101905 8.555541,3.287682 2.728611,1.479692 5.527292,2.838348 8.210583,4.396325 2.218906,1.445572 4.522184,2.772943 6.687043,4.294235 2.876461,2.338139 5.81768,4.604814 8.653745,6.987533 7.752666,7.8854 15.01145,16.244839 22.893718,24.003669 1.91133,1.7633267 3.765722,3.7499101 6.210969,4.7599746 0.636382,0.2827629 1.280792,0.5011031 1.976912,0.3051646 3.31819,-0.3614172 6.64008,-0.6874864 9.96447,-0.9863804 0.6694,-0.05913 1.66102,-0.1403041 2.45407,-0.2078934 2.42865,-0.2028204 4.86013,-0.3697577 7.29202,-0.5284348 0.44513,-0.022085 1.26521,-0.071934 1.85393,-0.104651 5.85711,-0.3347791 11.72475,-0.4879969 17.59139,-0.4480834 0.33663,0.00251 1.20053,0.017434 1.73925,0.024703 0.61559,0.011376 1.30207,0.013963 1.72858,0.03106 5.27563,0.1476862 10.25404,0.329466 15.54312,1.1497203 4.52311,0.6576649 9.0046,1.6038734 13.40897,2.825767 0.33638,0.1023754 1.08806,0.3050309 1.58652,0.457787 5.99909,1.7510888 11.81467,4.09822743 17.41806,6.8540976 6.78577,2.3256513 12.29138,7.1016619 17.87794,11.4219399 1.60909,1.284183 3.29602,2.479614 4.92193,3.732679 5.08213,5.550258 11.14966,10.262633 15.30653,16.61206 1.06304,1.586379 1.77402,3.372445 2.89096,4.924881 4.8818,7.76677 8.16982,16.420336 10.64064,25.223118 0.0858,0.331284 0.31628,1.158281 0.45753,1.679525 0.28603,0.996721 0.57921,1.992152 0.51796,3.040043 0.0301,0.61888 0.0599,1.237769 0.0909,1.856604 -6.45807,-1.312046 -13.13807,0.399146 -18.95508,3.238281 -4.39253,1.131844 -8.74086,2.457151 -12.96289,4.121094 0.5296,0.656757 0.45276,1.022941 -0.43739,0.999442 -0.82946,0.155134 -1.65893,0.310267 -2.48839,0.465401 0.8624,-0.733389 -0.1706,-0.14829 -0.6236,0.03763 -1.46399,0.457033 -3.02781,0.594861 -4.53068,0.927565 -3.33632,0.654513 -6.70057,1.194915 -10.01943,1.92072 -5.02195,1.49996 -10.01566,3.100825 -15.05565,4.536303 -12.93264,3.318371 -26.39033,3.921852 -39.68028,3.394764 -6.07422,-0.159783 -12.18776,-1.006366 -18.2388,-0.05917 -1.37716,0.233523 -2.79913,0.376258 -4.12826,0.782115 -3.40126,1.875363 -6.80251,3.750725 -10.20377,5.626088 3.81408,1.140079 7.6166,2.362816 11.43788,3.451341 2.31142,0.006 4.63029,-0.18063 6.93669,-0.0449 2.57652,0.24111 5.21102,0.36273 7.63637,1.36059 3.13477,1.25162 5.90683,3.2255 8.84995,4.85078 6.10926,3.53819 12.19053,7.12884 18.31722,10.63436 6.12754,2.90213 12.21138,5.89858 18.36763,8.73877 9.98753,4.46133 20.31307,8.10008 30.64835,11.65856 9.98786,3.68855 20.49735,5.74702 31.04419,7.02437 -5.73727,1.33022 -11.64686,1.68035 -17.51953,1.74414 -0.35353,-0.004 -1.20072,0.002 -1.74335,10e-4 -1.43343,0.0134 -3.07185,-0.0239 -4.37383,-0.0327 -2.61784,-0.0534 -5.23568,-0.10689 -7.85352,-0.16016 -2.48123,1.75091 -4.88942,3.61265 -7.54379,5.10071 -15.50439,9.38493 -30.99108,18.80057 -46.50652,28.16629 -4.81692,2.63512 -9.61266,5.31016 -14.52832,7.75891 -8.62311,4.42475 -17.22947,8.88258 -25.92672,13.16073 -8.31789,4.13096 -16.613069,8.31049 -24.94515,12.41107 -10.799895,4.73633 -21.623978,9.42072 -32.408757,14.1895 -12.740292,6.16695 -25.298116,12.94617 -36.419065,21.77473 -5.628416,4.45448 -10.937414,9.32507 -15.8046345,14.60053 -4.67574289,5.60488 -8.1224599,12.17869 -10.4944853,19.06361 -0.8661322,2.63768 -1.5962777,5.33881 -1.9853735,8.08672 0.7030758,0.0402 1.5815224,-0.10014 2.3518778,-0.1292 -0.4778646,1.38867 -0.9557292,2.77734 -1.4335937,4.16601 1.3061378,2.36706 3.8620401,3.58831 6.30563394,4.45438 4.86278036,1.86321 9.75426326,3.6634 14.59914126,5.56592 8.080418,4.25891 15.551526,9.70104 21.980059,16.19503 3.826009,4.09346 5.619999,9.5029 7.858894,14.52126 1.756671,4.32692 3.145385,8.83937 3.760178,13.47826 -6.677641,0.90978 -13.466383,0.40499 -20.107555,-0.56927 -8.75711,-1.36629 -17.353389,-3.83482 -25.4490856,-7.45222 -0.2634957,-0.11931 -0.9727976,-0.43445 -1.413509,-0.6464 -2.48151395,-1.16579 -4.9150562,-2.43566 -7.2759442,-3.83016 3.8840271,-8.67319 5.58482677,-18.47377 3.9667969,-27.89649 -1.7910156,-3.49479 -3.5820312,-6.98958 -5.3730469,-10.48437 -1.2673238,3.74804 -2.6180877,7.48157 -3.8333012,11.23866 -0.008,1.09613 -0.04225,2.19186 -0.09443,3.28673 -0.0214,0.2496 -0.05695,1.07642 -0.101197,1.55701 -0.448796,5.46626 -1.363547,11.00981 -3.73504,16.0009 -0.642693,1.26029 -1.247972,2.56274 -2.315415,3.52887 -3.312512,3.62539 -7.796933,5.82928 -12.139364,7.96205 -3.964806,1.92793 -8.106395,3.4796 -12.371716,4.5977 -5.878821,1.64448 -11.910443,2.64153 -17.922996,3.6538 -1.458117,0.2356 -2.919282,0.45112 -4.381069,0.66256 -0.365435,0.0522 -1.189905,0.16091 -1.731111,0.23476 -5.653581,0.49506 -11.330155,0.74691 -17.001689,0.95702 -0.992373,-0.0293 -2.136956,0.0547 -3.030872,0.0953 2.061704,-8.0177 5.048695,-15.80123 8.964567,-23.09762 3.495896,-6.90934 7.985822,-13.49723 14.172269,-18.27067 5.70554,-4.44319 12.314832,-7.50554 18.832271,-10.54409 3.994771,-1.45927 7.989514,-2.91863 11.984018,-4.37864 -5.088132,-8.86845 -10.355884,-17.63069 -15.654116,-26.37434 -2.078648,-3.51857 -4.294166,-6.96326 -6.069563,-10.65032 -3.553857,-6.9973 -7.223622,-13.9365 -10.691083,-20.97715 -3.322167,-6.86589 -6.395356,-13.85674 -9.03761,-21.01379 -1.999845,-5.17637 -3.712318,-10.46062 -5.102087,-15.83338 -0.48086,-1.73808 -0.951809,-3.47879 -1.416244,-5.22133 -0.09551,-0.36081 -0.298493,-1.16304 -0.435152,-1.69286 -1.259594,-4.77079 -2.206605,-9.61748 -2.898087,-14.50203 -0.838533,-5.50694 -1.821061,-11.03205 -1.84079,-16.61769 0.107805,-3.31911 0.198903,-6.63918 0.38692,-9.955 0.01659,-0.28507 0.07955,-1.19757 0.113963,-1.72374 0.249797,-4.31061 0.887169,-8.58613 1.746267,-12.81478 1.025395,-5.36458 2.02763,-10.74756 3.490682,-16.01218 2.00088,-5.98566 3.864103,-12.0254 6.240885,-17.87703 0.130583,-0.29558 0.453899,-1.09727 0.66298,-1.58582 3.013054,-6.768339 6.397601,-13.37177 10.052271,-19.815741 2.106313,-3.704963 4.297159,-7.365325 6.767584,-10.841094 3.067566,-4.467236 6.079665,-8.977927 9.181881,-13.418018 4.654967,-5.175881 9.273395,-10.387823 13.951208,-15.541159 4.176094,-3.822518 8.314475,-7.690907 12.514153,-11.484738 3.364788,-2.436844 6.678164,-4.950701 10.0752745,-7.339126 C -4.5474498,21.3683 0.72167857,18.177271 6.1922914,15.348556 8.8625485,13.873836 11.584338,12.495824 14.355469,11.220703 14.632034,10.366727 14.888663,9.5059471 15.177734,8.65625 20.361504,6.8670526 25.515223,4.9849023 30.6875,3.1601562 25.219875,1.8560346 19.769247,0.47471104 14.291016,-0.78125 c -0.244096,-0.347282 -0.01727,-1.1104338 -0.0957,-1.6050781 -0.01848,-3.4978159 0.03683,-7.0007133 -0.02741,-10.4953779 -0.508669,-4.212779 -1.251936,-8.516535 -3.411554,-12.236884 -1.9470133,-3.768828 -4.6262406,-7.11705 -7.7328247,-9.99382 -2.06708779,-1.990618 -4.4123545,-3.669772 -6.9501881,-5.006573 -2.4980292,-1.384454 -5.0967615,-2.66813 -7.8408712,-3.463549 -5.433975,-0.886352 -11.017803,-1.108095 -16.459025,-0.153796 2.243951,-1.407701 4.409269,-2.951689 6.704412,-4.270664 2.704398,-1.314998 5.415191,-2.650473 8.245782,-3.671539 3.8408832,-1.293034 7.6487083,-2.694675 11.5106167,-3.918633 3.3630365,-0.872508 6.7873036,-1.537968 10.2276944,-1.998761 2.7489519,-0.05676 5.5025569,-0.25331 8.2485649,-0.221629 3.734518,0.37408 7.469036,0.748161 11.203554,1.122242 z M 236.93555,83.697266 c 4.48941,0.297646 8.47164,2.650335 12.29703,4.814367 1.8797,1.089835 3.81676,2.104336 5.58784,3.392829 8.69513,5.72799 18.56872,9.360678 28.55361,12.123658 6.40161,2.09187 11.44157,7.10742 14.8623,12.77266 0.54749,1.18298 1.73309,1.98521 1.98608,3.31994 0.50627,1.92847 -0.2462,4.02122 -1.66772,5.37342 -1.36843,2.73299 -4.24881,4.21635 -6.94477,5.35654 -6.34989,2.50117 -13.22446,3.27147 -19.99558,3.57652 -12.99228,0.47002 -25.9832,-1.18705 -38.66924,-3.90506 -23.0821,-5.02873 -45.28055,-13.86823 -65.77016,-25.58947 -0.73236,-0.23127 -0.7853,-0.59299 -0.0621,-0.8681 7.75149,-1.89228 15.43685,-4.170679 22.7719,-7.336054 -0.67058,-1.457683 -1.34115,-2.915365 -2.01172,-4.373047 2.6582,-0.07357 5.3164,-0.147136 7.97461,-0.220703 -0.96159,1.061198 -1.92318,2.122395 -2.88477,3.183593 1.95252,-0.966342 3.88433,-1.996947 5.66211,-3.261718 3.01888,-0.104663 6.05384,-0.125127 9.06269,-0.282317 8.41884,-3.003272 16.75664,-6.61907 25.70478,-7.706477 1.15724,-0.29539 2.34906,-0.42914 3.54308,-0.370581 z M 206.0332,167.71875 c 5.63189,5.88951 9.77631,13.07828 12.57207,20.70598 2.44819,6.639 4.15803,13.52425 5.66369,20.42914 0.43389,2.58714 0.88941,5.34459 0.0335,7.89318 -0.47168,1.44561 -2.21805,1.62171 -3.51341,1.6299 -4.17054,-0.10396 -8.15319,-1.5686 -12.00997,-3.03369 -2.22555,-0.87611 -4.41883,-1.8322 -6.59159,-2.83154 -0.43155,-0.20647 -1.19936,-0.55819 -1.75977,-0.82031 -4.55409,-2.20125 -9.12066,-4.37705 -13.66936,-6.58859 -7.48662,-3.73721 -14.39825,-8.5248 -20.89509,-13.77665 2.69619,-1.42163 5.48096,-2.68352 8.11625,-4.21504 5.73392,-3.48013 11.504,-6.90383 17.21539,-10.41912 4.71029,-3.23485 9.4481,-6.43036 14.14102,-9.69006 0.23242,0.23894 0.46484,0.47787 0.69726,0.7168 z"
           transform="translate(1.2083333e-6)" />
        <path
           style="display:inline;fill:#f05a93;fill-opacity:1;stroke-width:0.264583"
           d="m -93.490083,168.61369 5.01805,-42.42535 L -72.049317,84.21918 -48.783803,50.00519 -14.113627,18.072133 5.5023936,6.66747 8.2395135,-18.878977 C -0.37719827,-27.11575 -6.666485,-36.516236 -26.88685,-38.951183 l -15.510343,5.930423 -4.105677,-7.298983 28.73975,-17.791277 46.07484,-5.930423 37.407297,15.054156 34.670173,35.126364 75.72698,1.368559 49.26814,29.195937 c 17.48146,19.289815 24.76017,40.934113 26.45881,63.866117 10.90969,8.745118 23.09555,14.937887 37.40729,16.8789 l 17.7913,20.07221 -18.24747,20.98458 -26.00264,1.82475 -52.00526,13.6856 -78.00789,46.53102 -53.830023,26.00264 -160.57766,-7.299 z"
           id="path4"
           sodipodi:nodetypes="cccccccccccccccccccccccccc" />
        <path
           style="display:inline;fill:#ffffff;fill-opacity:0.809689;stroke:none;stroke-width:0.264583"
           d="m 209.61228,84.67846 36.70737,17.24613 c 17.95285,8.03036 33.936,14.67691 52.84594,6.32886 l -9.17686,-10.284393 -22.30922,-6.328854 -25.63185,-14.71459 c -11.63488,1.212471 -22.03616,4.48095 -32.43538,7.752847 z"
           id="path54"
           sodipodi:nodetypes="ccccccc" />
        <path
           style="display:inline;fill:#ffffff;fill-opacity:1;stroke:none;stroke-width:0.264583"
           d="m 97.017592,168.39243 126.054388,-14.24169 26.64545,-2.64252 15.57688,-10.8155 -39.25423,-5.23067 -28.8228,-9.20869 -62.92657,-30.36704 c -10.59486,0.106377 -20.27587,0.09244 -25.61908,6.14428 -17.072043,16.89759 -16.519034,23.61182 -21.52854,33.53995 l -9.854066,23.52221 z"
           id="path50"
           sodipodi:nodetypes="ccccccccccc" />
        <path
           style="display:inline;fill:#f684b7;fill-opacity:1;stroke:none;stroke-width:0.264583"
           d="m -91.803766,152.85167 c 5.139517,-6.44567 10.903297,-12.62448 14.390871,-21.66607 3.93075,-10.93485 7.38426,-26.4436 14.194671,-37.618419 11.551013,-20.213682 24.527733,-36.937793 42.322025,-52.678817 L 2.3540425,24.478413 C 26.500186,8.3650913 37.29095,6.2441045 56.341649,-0.06141056 L 8.2436013,5.8281482 -23.330972,24.80561 -51.797164,53.598999 -73.883003,88.772744 -88.770494,128.52725 Z"
           id="path45"
           sodipodi:nodetypes="cccccccccccc" />
        <path
           style="display:inline;fill:url(#linearGradient47);stroke:none;stroke-width:0.264583"
           d="m -52.191436,57.922672 2.206192,1.615247 c 0.994298,0.74331 1.616786,0.445551 2.087999,-0.275776 l 9.415703,-11.227929 9.139928,-9.061135 9.021738,-7.367096 L -9.3283233,24.120698 4.7361338,16.477826 20.809799,8.4409933 C 25.86565,6.5733441 30.921502,5.3219321 35.977353,3.8316315 L 8.4393797,6.392388 -22.841236,25.184395 -43.209091,43.621837 Z"
           id="path46"
           sodipodi:nodetypes="cccccccccccccc" />
        <path
           style="display:inline;fill:#c93b71;fill-opacity:1;stroke:none;stroke-width:0.264583"
           d="m 168.2187,99.75994 c 7.05624,6.68448 16.24584,10.84773 26.13467,14.18461 11.97786,4.3579 24.3281,7.22629 36.82171,9.52119 13.58071,2.89031 29.15031,4.48351 48.6746,3.49757 9.49341,0.49149 18.44281,-0.78485 26.91191,-8.74394 l -2.81749,11.65859 -22.15132,8.06386 -47.60589,-1.16587 -43.91403,-12.63013 -42.74815,-23.99726 z"
           id="path55"
           sodipodi:nodetypes="ccccccccccc" />
        <path
           style="display:inline;fill:#d03572;fill-opacity:1;stroke:none;stroke-width:0.264583"
           d="m -37.846804,-36.302606 c 10.954674,-6.770382 21.052701,-9.718868 33.77675,-6.473878 25.210453,8.928155 48.919812,43.06487834 74.518891,37.2301214 L 91.20853,-8.2960508 91.27996,-5.617796 71.295384,-2.8030685 C 62.506385,-0.90457485 52.89821,2.1407606 44.975538,2.8263916 L 3.8111876,9.3023991 8.0332813,-15.0514 -2.2404814,-31.939775 -18.565911,-37.569233 Z"
           id="path49"
           sodipodi:nodetypes="cccccccccccc" />
        <path
           style="fill:#f8bed7;fill-opacity:1;stroke:none;stroke-width:0.264583"
           d="m -44.164056,-35.605413 c 11.783817,-5.088244 17.14136,-13.025886 32.624386,-17.99966 37.567309,-13.92622 67.254705,7.57882 90.202844,35.89705 l 5.931707,6.443062 5.113539,3.9885588 c 0.751386,0.6385172 1.390128,0.4663271 2.14171,-0.022025 L 101.87863,-12.389941 85.617588,-29.980517 62.708929,-51.661928 32.334501,-63.42307 1.2441789,-63.525339 l -25.0563459,7.670308 -17.079221,12.681579 z"
           id="path47"
           sodipodi:nodetypes="cccccccccccccc" />
        <path
           style="display:inline;fill:url(#linearGradient44);stroke:none;stroke-width:0.264583"
           d="m -38.039717,196.81372 c 5.747696,-3.84182 10.844581,-7.85427 18.007591,-12.30265 8.010523,-5.28963 15.8372092,-10.67118 24.2660622,-15.75165 10.5130448,-6.70164 19.0773948,-14.7952 28.0975428,-22.56319 6.626126,-4.98505 11.974371,-10.31861 20.860298,-14.68735 l 16.815953,-7.87583 -8.301545,-6.81153 -30.439008,19.796 -34.909069,30.22616 -31.929027,21.07313 z"
           id="path39"
           sodipodi:nodetypes="ccccccccccc" />
        <path
           style="display:inline;fill:#f2508f;fill-opacity:1;stroke-width:0.264583"
           d="m -34.047702,280.13429 20.205249,-7.68678 15.593182,17.35016 32.284474,18.00905 12.079224,14.49506 8.784891,22.84071 0.219623,9.44375 -27.452785,1.31773 -37.1161627,-10.98111 -6.3690473,-3.07469 -17.789403,10.32224 -30.527495,5.71018 -27.892028,0.87847 -3.294335,-4.17282 8.565269,-22.62108 16.032427,-24.5977 26.793914,-15.15393 v 0"
           id="path22" />
        <path
           style="display:inline;fill:#f9cfe2;fill-opacity:1;stroke:none;stroke-width:0.264583"
           d="m 87.350244,-4.3642227 8.033353,-0.30692 c 10.962463,-1.812822 20.701863,-1.3195853 31.642963,-0.7191587 13.57632,1.1161714 22.36479,5.33294001 34.60949,10.6075849 l 18.96782,9.9783215 16.63052,11.236851 c 26.56866,19.204063 19.35936,5.727289 11.22695,-12.731755 -0.606,-1.676816 2.45386,-4.2697375 4.50464,-4.977519 l -15.64169,-12.4953764 -29.03601,-8.4501116 -37.03666,-3.95537 -27.87189,4.39768 c -5.471638,4.1838843 -11.326858,2.8222623 -16.029486,7.4157733 z"
           id="path48"
           sodipodi:nodetypes="ccccccccccccc" />
        <path
           style="display:inline;fill:url(#linearGradient53);stroke:none;stroke-width:0.264583"
           d="m 251.42753,68.242954 c -5.6733,-1.847176 -10.87452,-2.089276 -15.48394,-0.319257 -6.73664,2.038395 -12.47387,4.701417 -18.11785,7.422726 -9.39286,5.714631 -15.50628,9.618888 -23.14614,13.408795 l -16.76099,6.464956 -28.81294,5.746626 21.23059,13.08954 29.69091,13.00972 33.60179,10.77493 28.33407,1.75591 27.21666,-0.71833 19.47468,-12.9299 -2.3146,-4.15035 c -5.05244,6.52218 -11.49779,8.28523 -18.19767,9.17864 -11.51985,0.96216 -23.03971,0.36089 -34.55956,-0.15963 -11.72657,-0.37041 -23.20677,-1.72626 -34.24034,-4.86866 -10.34087,-2.81165 -20.76848,-5.47461 -30.16977,-9.89697 -8.7808,-4.25138 -17.09332,-9.10484 -24.90206,-14.60601 7.6335,0.73202 16.833,-2.189956 26.09927,-5.267745 5.27186,-1.83623 12.61331,-6.89181 18.99579,-10.455669 l 17.23988,-5.746626 10.69512,-2.2348 15.32434,0.798142 z"
           id="path52"
           sodipodi:nodetypes="cccccccccccccccccccccccc" />
        <path
           style="display:inline;fill:url(#linearGradient27);stroke-width:0.264583"
           d="m 12.757702,297.75102 c 5.362185,4.34649 10.724371,7.68052 16.086556,13.27361 3.002811,2.88299 5.220111,6.35511 7.296086,9.93323 2.301531,5.53159 6.415235,12.60626 6.592853,18.98742 l 2.900852,15.55912 9.229992,-1.31858 L 53.984995,339.32994 42.645289,318.14491 25.32807,301.88254 Z"
           id="path26"
           sodipodi:nodetypes="cccccccccc" />
        <path
           style="display:inline;fill:url(#linearGradient29);stroke-width:0.264583"
           d="m -88.289466,352.70108 c 5.426753,-5.9342 10.098481,-12.47243 17.37566,-16.92629 l 22.768105,-12.43259 38.6458616,-14.82923 -30.8567746,-13.03173 -21.869362,14.08027 -20.671044,28.31034 z"
           id="path27"
           sodipodi:nodetypes="cccccccc" />
        <path
           style="display:inline;fill:#a01f5d;fill-opacity:1;stroke-width:0.264583"
           d="m 152.48784,189.51172 19.25587,15.63124 27.41129,13.59236 24.69282,8.15544 4.75734,-0.45307 3.17153,-9.06159 -1.58578,-19.9355 -7.70234,-20.61509 -15.40467,-20.61512 z"
           id="path35" />
        <path
           style="display:inline;fill:url(#linearGradient37);fill-opacity:1;stroke-width:0.264583"
           d="m 208.98057,156.96147 c -0.55759,10.71487 0.33166,21.70101 -6.37403,31.26311 -4.19188,8.14459 -11.09592,16.28918 -17.14918,24.43377 l -23.37141,-13.20335 -8.95401,-9.56103 z"
           id="path36"
           sodipodi:nodetypes="cccccc" />
        <path
           id="path25"
           style="display:inline;fill:#c7366f;fill-opacity:1;stroke-width:0.264583"
           d="m -10.911131,305.63357 c -2.658213,0.88511 -5.703088,4.26672 -9.121407,5.95416 l -25.463562,9.24802 c -7.446821,3.48291 -14.759729,7.16736 -21.53667,11.6551 l -4.940784,4.18062 c 8.477222,-4.27049 16.512907,-9.64615 25.590686,-12.41526 8.604528,-3.06524 14.709002,-5.29712 21.409546,-7.72769 3.296636,-0.29844 4.314504,1.6821 4.940784,4.05401 2.670269,9.10421 0.514814,16.92149 -1.773535,24.7034 l 7.824845,-5.39295 23.4864217,11.21637 33.3157963,4.74648 9.581844,-2.28513 c -0.650342,-2.75255 -1.90845,-5.3025 -3.252515,-7.82381 -1.731282,-3.69194 -4.659887,-7.38387 -8.263062,-11.07581 -3.904007,-3.89364 -9.650176,-6.86619 -14.85594,-10.10895 -4.466334,-1.65784 -8.946765,-3.30158 -13.185759,-5.18676 -3.6114819,-1.52359 -7.155221,-3.04719 -9.8453936,-4.57078 -3.38723137,-1.74496 -6.361947,-2.87115 -9.2872884,-3.92327 -0.4195591,-2.04836 0.4213651,-4.43294 -4.624007,-5.24775 z"
           sodipodi:nodetypes="cccccccccccccccccccc" />
        <path
           style="display:inline;fill:#f6bed7;fill-opacity:1;stroke-width:0.264583"
           d="m -28.776768,291.77427 c -10.843417,5.48184 -20.330058,12.32045 -29.429382,19.54638 -18.622982,15.7396 -23.413927,31.47921 -32.284474,47.21881 l -3.953203,-3.07472 10.54187,-31.40599 20.205248,-20.86412 21.522983,-11.42034 z"
           id="path23"
           sodipodi:nodetypes="cccccccc"
           inkscape:label="path23" />
        <path
           style="display:inline;fill:#da407b;fill-opacity:1;stroke-width:0.264583"
           d="m -43.500045,191.65935 4.769305,8.85727 13.285914,6.13198 16.3518956,-1.02201 -12.2639216,69.15489 -15.329902,7.83529 -12.945251,-59.27561 z"
           id="path21"
           inkscape:label="path21" />
        <path
           style="display:inline;fill:#ffffff;fill-opacity:0.228374;stroke:none;stroke-width:0.264583"
           d="m 198.99155,27.732119 c 1.04646,4.24885 23.59464,15.862775 21.58291,6.524485 -1.34832,-7.40883 -5.35727,-14.289363 -8.65493,-21.791018 l -0.46839,-3.0780485 c -2.70904,0.7978015 -4.39925,2.0164235 -2.74349,4.6170745 l 6.40148,17.072576 c 1.76236,6.637497 -2.57999,3.632133 -6.01719,3.097845"
           id="path51"
           sodipodi:nodetypes="ccccccc" />
      </g>
      <g
         id="g18"
         inkscape:label="belly"
         style="display:inline">
        <path
           style="display:inline;fill:url(#radialGradient15);fill-opacity:1;stroke-width:0.264583"
           d="m -12.796115,207.36641 -6.681907,14.8752 c -6.096195,14.96536 -6.805944,29.43503 -7.318277,45.42104 l 0.159094,9.94331 c 1.152108,3.17885 2.900735,6.30799 3.133145,9.56348 4.304746,-2.23388 6.284115,-2.83999 8.067493,-3.30892 2.594539,-0.8044 4.580765,-0.98449 6.685598,-0.65178 1.1959942,0.24277 1.7835867,0.74627 2.3981191,1.23823 1.5845124,2.50572 1.9193734,5.73454 3.7386842,8.19328 1.2895829,1.10048 2.08323962,1.2091 3.12388604,1.8117 L 5.3404819,274.10592 20.852047,258.67391 48.613771,239.8214 l 31.420863,-14.07975 35.079996,-16.14792 38.73915,-20.44345 31.02314,-17.18205 27.42822,-20.503 c -12.41111,-0.82032 -21.98424,-1.80343 -34.34877,-3.1223 -19.12968,-0.94623 -37.41913,6.51734 -56.00073,10.26149 -29.570926,9.33432 -45.38589,8.72632 -36.506574,-17.18204 l -17.585043,17.97751 -23.386666,19.56842 -38.5800459,22.67075 -16.0683921,4.6137"
           id="path6"
           sodipodi:nodetypes="ccccccccccccccccccccccccc" />
        <path
           style="display:inline;fill:#ffffff;fill-opacity:1;stroke:none;stroke-width:0.264583"
           d="m -23.662916,287.16617 c 3.837074,-13.44187 7.760728,-20.7642 16.1700877,-21.41471 8.42865535,1.35117 9.3983268,6.38918 6.66804444,11.63641 -3.16939324,4.11245 -3.20213834,4.09734 -5.09927844,7.57366 -4.7684567,-4.31997 -11.5766197,0.36876 -17.7388537,2.20464 z"
           id="path185"
           sodipodi:nodetypes="ccccc" />
        <path
           style="display:inline;fill:#53b2cc;fill-opacity:1;stroke-width:0.264583"
           d="M -2.1205266,292.21296 -2.9744938,282.73602 7.612189,268.35904 2.2150284,294.42924 Z"
           id="path14"
           inkscape:label="path14"
           sodipodi:nodetypes="ccccc" />
        <path
           style="display:inline;fill:url(#linearGradient12);fill-rule:nonzero;stroke-width:0.264583"
           d="m 85.121153,143.05393 c -0.801326,4.57494 -2.829388,6.52285 -5.568219,10.17405 l -5.430735,9.41785 -5.911937,7.56179 -6.805604,7.08056 -11.342672,9.89907 -12.373824,11.20519 -16.773406,15.26106 -8.317957,6.73684 -26.603722,-13.06126 25.297596,-8.11173 26.466233,-14.64236 24.678904,-19.24817 18.698223,-18.83571 m -37.448701,140.95011 2.744696,-6.01219"
           id="path3"
           inkscape:label="path3"
           sodipodi:nodetypes="cccccccccccccc" />
      </g>
      <g
         id="g19"
         inkscape:label="shades"
         style="display:inline">
        <path
           style="display:inline;fill:#b8346c;fill-opacity:1;stroke-width:0.264583"
           d="m 40.515582,130.61646 c 4.338497,-3.98631 9.067461,-7.73185 12.708387,-12.69476 3.200387,-4.82658 6.057365,-12.14125 9.535832,-14.04799 3.552313,0.1864 6.87344,0.83518 9.164703,3.54368 2.43946,2.19045 4.411685,5.24096 3.350477,8.60491 -11.659744,3.91718 -23.517444,8.09488 -34.759399,14.59416 z"
           id="path18"
           sodipodi:nodetypes="cccccc" />
        <path
           style="display:inline;fill:#b8346c;fill-opacity:1;stroke-width:0.264583"
           d="m -37.69297,196.35702 c 12.063635,6.34156 24.184818,1.38809 35.9549641,-2.63461 11.3648335,-3.39024 22.0370319,-8.7235 32.3904629,-15.03291 8.526715,-4.5597 15.845661,-10.89382 22.298997,-17.66753 7.204977,-6.33152 13.801871,-13.27187 20.47501,-20.14717 l 9.453676,-9.2987 4.184415,-5.7342 2.634631,4.18442 -12.398264,19.52726 -21.387003,21.54198 -26.656266,18.28744 -26.9662241,12.08831 -16.7376549,5.26926 -13.483111,-1.23981 -11.933328,-5.57924 z"
           id="path19"
           sodipodi:nodetypes="cccccccccccccccc" />
        <path
           style="display:inline;fill:#b8346c;fill-opacity:1;stroke-width:0.264583"
           d="M 13.9927,150.14369 8.0492833,134.30405 c -3.024723,-6.6332 -6.1290174,-12.36158 -9.896243,-19.53767 -2.8178102,-4.57027 -6.3050353,-9.46029 -11.9606843,-13.08462 -26.428206,-18.444582 -47.595421,8.11881 -52.848099,15.6587 -4.885241,7.28564 -7.362204,14.57129 -10.43913,21.85693 l -6.524458,15.65871 c -2.598048,6.44779 -5.749841,6.25063 -8.808016,7.1769 l 2.28356,25.44537 11.091577,35.23208 15.984918,35.55828 20.371075,35.33915 14.822835,-1.15967 c -9.541275,-27.64397 -17.77563,-62.86015 -13.989427,-95.83564 L -26.530334,181.2801 8.3755067,155.83472"
           id="path20"
           sodipodi:nodetypes="cccccccccccccccc" />
      </g>
      <g
         id="g2"
         inkscape:label="outline"
         style="display:inline">
        <path
           id="path1"
           style="display:inline;fill:#000000;stroke-width:0.264583"
           inkscape:label="path1"
           d="m -0.31022785,-65.746341 c -10.65440015,1.872892 -20.25482815,6.43751 -29.56357015,11.732101 -5.408647,3.525888 -16.723361,11.420153 -17.656287,16.320967 -0.0692,5.025464 3.474878,6.765572 7.36645,6.079165 8.587337,-2.139141 15.038171,-3.946709 24.055405,-2.884528 3.091606,1.10008 6.1662669,2.302061 9.1183065,4.239535 2.0323796,1.668214 4.0859431,3.20949 5.9825806,5.692159 8.2103856,9.745221 3.8829435,18.501213 4.1361816,29.6509031 C -3.9532475,8.9521745 -10.21378,13.055081 -16.33819,17.196917 -57.991375,46.631674 -78.77829,89.05459 -88.825238,119.02791 c -3.009484,10.88488 -4.913012,22.02527 -5.876128,33.26774 0.137402,22.80174 0.372467,24.6887 4.701001,45.01999 2.109182,10.6975 6.24651,20.64455 10.214881,30.73611 l 9.221142,20.24992 9.763229,18.35134 11.300085,18.98437 3.345016,5.42396 c 1.060358,2.25042 -30.181969,5.38526 -47.551103,51.25733 -3.130566,11.41017 -3.650175,17.55347 2.440678,19.34611 5.307908,0.65467 10.670093,0.20983 16.00109,0.0904 10.612267,-0.55024 21.016628,-2.34234 31.459579,-4.15843 2.096725,-0.36523 15.954513,-3.07815 29.109334,-13.01781 l 7.2321169,3.43493 9.8536621,4.52014 c 16.303601,6.56374 46.45188,10.38422 54.602352,2.98328 1.30002,-1.33389 1.178711,-2.90338 1.131714,-4.4297 0.163678,-3.16571 -0.490137,-6.31825 -1.208712,-9.47333 C 53.588394,327.99889 45.211856,316.33208 40.509154,311.0039 32.976167,302.8219 24.259688,297.70365 14.509019,292.81001 L 6.0408017,289.7017 C 3.4399763,288.81216 4.0970703,287.22634 4.5675066,285.62805 8.5856205,275.5561 14.753397,267.75488 22.977752,260.75876 c 5.617691,-5.18052 11.966654,-9.20319 18.544605,-12.86329 6.66386,-4.05121 13.719882,-7.37089 20.702095,-10.70581 l 22.192444,-10.01334 28.085114,-12.8633 22.08237,-11.46958 16.51837,-9.14053 10.37715,8.1964 c 54.83661,33.64943 68.92582,31.56354 72.84568,15.35617 1.02023,-12.59932 -3.54855,-36.49991 -19.74091,-55.12222 -1.69816,-2.0792 -1.73653,-3.60513 -1.15911,-4.9258 48.64235,-0.28004 48.22782,-14.03424 59.75474,-14.54263 7.9132,-0.46871 15.14206,-0.80318 24.6373,-4.1033 5.34984,-2.98745 8.96918,-5.89338 12.39327,-13.14345 2.02743,-8.04964 -4.41625,-14.98007 -8.68267,-21.13824 -7.09804,-8.74129 -18.83833,-10.354859 -28.90987,-13.786242 -6.20643,-2.314819 -11.08776,-7.361916 -16.75505,-10.787972 0.0553,-5.765486 -0.0943,-11.509165 -1.62574,-17.105933 -2.44249,-9.272235 -5.75949,-18.38772 -10.66291,-26.673824 C 239.61649,29.54392 234.80652,23.586898 229.94083,17.869227 224.42536,11.407805 217.42118,6.6937055 210.51876,1.8603852 203.49061,-2.4528456 196.1716,-6.553449 188.62088,-9.854662 c -8.33875,-3.344302 -17.03113,-5.351344 -25.89196,-6.719486 -9.46317,-0.913128 -19.01545,-2.070886 -28.53831,-1.77767 -10.58586,-0.233302 -21.05674,2.098961 -31.61771,1.523938 -13.968937,-11.717576 -6.043841,-9.308647 -32.082798,-31.377929 -5.746739,-4.252872 -12.045688,-7.552373 -18.295524,-10.977625 -7.300014,-3.347926 -14.999515,-5.045769 -22.767603,-6.853328 -9.96944,-1.498302 -19.8175981,-1.515636 -29.73720285,0.290421 z m 28.98220985,4.472079 c 7.044808,1.120625 13.587997,3.535176 20.212203,6.040458 5.463708,2.573591 10.532048,5.784519 15.623853,9.002551 25.301845,20.304716 30.990239,33.564272 37.134682,35.528581 17.48114,-1.906597 35.07942,-2.983715 52.65105,-1.794723 13.81449,1.216177 27.42526,4.9523508 39.857,11.1471235 9.27477,3.1875728 16.20954,10.332027 24.10757,15.8470945 6.29038,6.908788 14.09459,12.643345 18.22576,21.226612 6.46938,9.756838 10.40344,20.833835 13.25398,32.118969 -0.0864,3.003321 1.00718,9.139495 -1.33016,9.566341 -6.66572,-3.295103 -14.20167,-1.482451 -20.53518,1.676384 -7.61794,1.948579 -15.03239,4.417936 -21.86533,8.374166 8.67118,-3.100712 17.27504,-6.806593 26.48107,-7.933366 8.44262,-2.113573 15.91132,3.297182 22.92625,7.181474 8.36252,5.948805 17.9436,9.662055 27.7518,12.444201 8.45729,2.116906 15.14821,8.523506 19.41431,15.901356 3.44175,3.73275 3.10183,9.52337 -0.23874,13.14907 -9.64017,17.80482 -82.51195,17.15396 -149.63324,-26.70122 3.66417,0.34755 10.74601,0.84095 11.78377,-1.571475 19.80959,-4.630583 29.80947,-10.058981 32.4528,-12.427149 l -14.68334,4.465361 c -15.40705,4.047472 -30.22132,4.378993 -45.3502,3.632336 -7.53963,-0.372104 -10.2747,-0.812446 -17.74827,0.692464 l 6.60838,-0.115755 5.08703,0.483175 c 5.55635,0.94336 7.92077,2.769181 12.94081,5.669933 l 19.19366,11.16987 16.89613,8.08064 c 10.12859,4.60119 20.51841,8.33122 30.96245,11.88093 15.2048,5.70584 29.87734,7.25061 48.03789,8.79119 -14.21253,10.19396 -30.90648,9.45844 -47.79191,9.10281 l -3.78117,2.70061 -49.15514,29.78681 -9.3462,5.1108 -21.84207,11.21017 -34.40979,17.15089 -32.372701,14.15004 c -20.299493,9.8375 -35.325367,18.70888 -50.8273887,35.08313 -5.3776938,6.18965 -10.0690818,15.99094 -11.4757853,23.89053 -1.0203117,3.15798 2.54065172,4.08133 3.6974487,4.5899 l 15.0678143,5.71438 c 8.6965,4.5785 15.736127,9.67414 22.781555,16.47703 4.357541,4.32422 6.336111,9.08749 8.673372,14.66991 3.674864,7.89833 5.993168,18.28997 4.868437,21.12894 -10.475529,3.25322 -40.496526,1.43002 -64.780025,-14.58671 0.547359,-0.7756 8.1112209,-13.74464 5.4642658,-28.85767 -0.03189,6.06144 -0.7909017,13.4655 -3.1140218,19.90783 -1.10188,2.96519 -1.906575,4.1472 -2.802413,5.87613 -2.430415,2.95362 -4.714101,4.97501 -8.036719,7.00939 -3.933914,2.37057 -7.547838,4.04028 -11.037569,5.55625 -4.871709,2.06879 -9.844378,3.3304 -14.825968,4.52014 -6.471699,1.30977 -13.012864,2.48076 -19.707325,3.34501 -5.574829,0.41416 -11.149731,0.71317 -16.72456,0.90382 -3.229891,-0.13589 -9.752536,1.23431 -8.497673,-2.16989 0.314796,-6.17684 2.701289,-13.36038 9.231902,-25.60983 10.492944,-17.45961 19.419048,-25.10569 36.059391,-32.87911 l 7.173722,-2.62154 c -5.656132,-9.83257 -11.6598,-19.40967 -17.298686,-29.0189 l -10.757999,-20.9734 c -3.11678,-6.18293 -5.961984,-12.45647 -8.588107,-18.80299 -2.421132,-6.26257 -4.900864,-12.49598 -6.689514,-19.0748 -2.076981,-7.59441 -4.289944,-15.14361 -5.423958,-23.05234 -0.955111,-6.21727 -2.083223,-12.36542 -2.260327,-18.89394 0.236261,-7.20193 0.355331,-14.40398 1.536857,-21.60591 1.267583,-6.82951 2.505314,-13.66898 4.248836,-20.33985 C -75.135078,95.703749 -55.076469,40.580614 10.550608,7.9003266 10.775684,7.1792614 10.971751,6.5577107 11.480267,5.6353486 12.016504,4.4456942 13.460575,4.4317243 14.504372,4.0034069 13.158377,3.6496248 11.728632,3.5053545 10.202309,3.6023978 9.503054,3.613352 9.2771203,3.0983862 9.3889217,2.2081676 L 9.5635881,-0.98595265 V -12.369754 c -0.3947529,-3.000838 -0.7614122,-6.001713 -2.0913452,-9.002551 -1.2526742,-2.56391 -2.7184792,-5.08789 -4.8203777,-7.492566 -1.87991791,-2.063269 -3.8691242,-4.057026 -6.3308797,-5.750037 -2.7324976,-1.643811 -5.5290766,-3.243303 -8.9446735,-4.414201 -13.038808,-2.064482 -17.895244,0.882957 -28.575517,2.845822 -1.575921,-0.002 -2.427211,-0.426627 -1.452108,-1.916679 l 5.575887,-4.878772 6.156214,-4.529956 6.558256,-4.249353 C -1.2323967,-63.716983 14.99815,-62.623844 28.671982,-61.274262 Z M 205.77383,161.00106 c 13.88435,12.55102 18.47351,27.08103 22.53248,44.60244 7.4512,31.00156 -24.66894,12.56961 -39.81824,5.47874 -12.39045,-5.70364 -20.85315,-12.11824 -31.02085,-20.68039 l 13.34957,-6.7908 17.51728,-10.57197 13.65808,-9.33741 z"
           sodipodi:nodetypes="cccccccccccccccccccccccccccccccccccccccccccccccccccccccccccccccccccccccccccccccccscccccccccccccccccccccccccccccccccccccccccccccccccccccccccccccccccccc" />
        <path
           style="display:inline;fill:#000000;stroke-width:0.264583"
           d="m 46.128566,127.57307 -5.644039,3.87721 -7.459948,6.62561 -9.226775,7.99982 -13.251222,12.12242 -10.06111429,8.04889 c -9.33404441,7.15405 -19.27690771,13.43097 -29.00545271,20.02406 -13.748354,10.00437 -11.117536,15.92787 5.34957,17.71737 9.210018,0.38935 17.3171463,-1.34386 25.8932022,-4.10563 l 11.4556138,-5.07208 7.852573,-4.17168 13.447538,-7.99981 c 13.618289,-7.59504 24.612379,-18.65258 36.362968,-28.71738 17.058919,-19.63927 9.307734,-15.81887 17.797038,-23.65969 -1.876505,10.29919 -6.579551,17.82786 -13.67016,25.33478 l -9.815721,9.76664 -8.883227,7.90165 -12.26965,9.47216 -10.208347,6.72378 -11.975179,7.16547 c -9.958811,5.50658 -20.5423845,9.3724 -31.704777,11.58256 -15.934677,0.74918 -50.086341,-1.95309 -22.821548,-25.42273 l 5.644039,-4.17168 8.588756,-5.39864 c 9.6598718,-6.20577 18.5350344,-13.50514 27.625342,-20.49789 6.26136,-5.47892 12.117793,-11.56241 19.097484,-16.11475 l 9.766641,-5.59496"
           id="path2"
           sodipodi:nodetypes="ccccccccccccccccccccccccccc" />
      </g>
      <g
         id="g31"
         inkscape:label="eye"
         style="display:inline">
        <path
           style="display:inline;fill:#153164;fill-opacity:1;stroke-width:0.264583"
           d="m 119.47001,47.010864 c -3.93821,2.456154 -5.81397,5.737283 -7.01717,9.287441 -1.59216,4.425407 -0.27503,8.019589 1.9607,11.351315 1.83799,3.342101 7.34847,10.74962 19.71,9.700214 3.98102,-0.02202 7.7812,-1.498299 10.93854,-4.540527 3.31869,-2.848273 5.64687,-6.274345 5.67565,-11.041734 0.45922,-3.300996 -0.49365,-6.743202 -2.78622,-10.319377 -10.89411,-13.319222 -25.07352,-6.863055 -28.4815,-4.437332 z"
           id="path31"
           sodipodi:nodetypes="cccccccc" />
        <path
           style="display:inline;fill:#1a3671;fill-opacity:1;stroke-width:0.264583"
           d="m 127.78884,47.156294 c -3.14474,1.22956 -4.86723,1.417589 -7.78498,4.009037 -1.71511,2.692603 -1.9099,6.145368 -2.73264,9.284154 l 4.0536,8.012906 7.0702,3.393702 7.35303,0.282808 6.78741,-3.205163 3.20516,-6.598864 -0.65989,-6.221785 -2.78075,-4.948951 c -1.49552,-1.394021 -2.07599,-3.154063 -5.2791,-3.865049 -2.06279,-0.522947 -4.17556,-0.746012 -6.36339,-0.51868 z"
           id="path33"
           sodipodi:nodetypes="ccccccccccccc" />
        <path
           style="display:inline;fill:url(#linearGradient33);stroke-width:0.264583"
           d="m 116.81582,58.183391 c -0.48148,9.316592 6.44936,14.261286 11.63206,15.038693 3.96557,0.359687 7.92996,0.762738 11.97049,-1.651101 5.16275,-3.116079 8.22166,-9.894947 5.67566,-15.685455 -0.70828,-1.717398 -1.80755,-3.122015 -2.88944,-4.540525 l -2.99262,-2.373458 c 0.87755,1.736926 1.35236,3.049512 2.44335,5.337232 2.86029,4.447653 2.79547,8.960698 -0.79224,13.03126 -4.24167,4.195677 -10.71685,4.817903 -15.99505,2.47665 -0.55451,-0.247364 -8.45763,-3.928897 -7.42995,-12.383251 0.21656,-1.074781 -0.33383,-1.880139 0.52548,-4.066605"
           id="path32"
           sodipodi:nodetypes="ccccccccccc" />
        <path
           id="path34"
           style="display:inline;fill:#fbfdff;stroke-width:0.255098"
           transform="matrix(0.86195749,-0.50698056,0.63989479,0.76846253,-9.1666669e-7,7.7083331e-7)"
           d="m 76.746679,116.18545 a 5.8997326,4.7198982 0 0 1 -5.899732,4.7199 5.8997326,4.7198982 0 0 1 -5.899733,-4.7199 5.8997326,4.7198982 0 0 1 5.899733,-4.7199 5.8997326,4.7198982 0 0 1 5.899732,4.7199 z" />
      </g>
    </g>
  </g>
</svg>
