<svg xmlns="http://www.w3.org/2000/svg" xmlns:xlink="http://www.w3.org/1999/xlink" xml:space="preserve" width="1720mm" height="1700.787" viewBox="0 0 1720 450"><defs><linearGradient id="j"><stop offset="0" style="stop-color:#b8346c;stop-opacity:1"/><stop offset=".538" style="stop-color:#f05a93;stop-opacity:1"/><stop offset="1" style="stop-color:#f9cfe2;stop-opacity:1"/></linearGradient><linearGradient id="i"><stop offset="0" style="stop-color:#9e295e;stop-opacity:1"/><stop offset=".574" style="stop-color:#d03f76;stop-opacity:1"/><stop offset="1" style="stop-color:#9e295e;stop-opacity:1"/></linearGradient><linearGradient id="h"><stop offset="0" style="stop-color:#f8bed7;stop-opacity:1"/><stop offset="1" style="stop-color:#f5b0ce;stop-opacity:1"/></linearGradient><linearGradient id="g"><stop offset="0" style="stop-color:#ff8fc0;stop-opacity:1"/><stop offset=".828" style="stop-color:#ff95c1;stop-opacity:1"/><stop offset="1" style="stop-color:#ff9cc3;stop-opacity:0"/></linearGradient><linearGradient id="f"><stop offset="0" style="stop-color:#790c47;stop-opacity:1"/><stop offset=".74" style="stop-color:#851350;stop-opacity:0"/></linearGradient><linearGradient id="e"><stop offset="0" style="stop-color:#698eb6;stop-opacity:1"/><stop offset="1" style="stop-color:#314d84;stop-opacity:1"/></linearGradient><linearGradient id="d"><stop offset="0" style="stop-color:#fd69a8;stop-opacity:1"/><stop offset="1" style="stop-color:#fd69a8;stop-opacity:0"/></linearGradient><linearGradient id="c"><stop offset="0" style="stop-color:#bc2576;stop-opacity:1"/><stop offset="1" style="stop-color:#dd3d7a;stop-opacity:1"/></linearGradient><linearGradient id="b"><stop offset="0" style="stop-color:#7dbdd1;stop-opacity:1"/><stop offset=".431" style="stop-color:#6abcd1;stop-opacity:1"/><stop offset=".627" style="stop-color:#61dae4;stop-opacity:1"/><stop offset="1" style="stop-color:#5fcdda;stop-opacity:1"/></linearGradient><linearGradient id="a"><stop offset="0" style="stop-color:#6094bf;stop-opacity:0"/><stop offset=".572" style="stop-color:#6094bf;stop-opacity:1"/><stop offset="1" style="stop-color:#6094bf;stop-opacity:1"/></linearGradient><linearGradient xlink:href="#a" id="s" x1="5.543" x2="105.54" y1="215.174" y2="118.728" gradientUnits="userSpaceOnUse" spreadMethod="pad"/><linearGradient xlink:href="#c" id="o" x1="20.405" x2="48.623" y1="303.157" y2="343.33" gradientUnits="userSpaceOnUse"/><linearGradient xlink:href="#d" id="p" x1="-82.597" x2="-81.399" y1="342.515" y2="321.844" gradientTransform="translate(.15)" gradientUnits="userSpaceOnUse"/><linearGradient xlink:href="#e" id="t" x1="143.746" x2="130.519" y1="51.24" y2="69.623" gradientUnits="userSpaceOnUse"/><linearGradient xlink:href="#f" id="q" x1="206.401" x2="173.316" y1="161.287" y2="204.236" gradientUnits="userSpaceOnUse"/><linearGradient xlink:href="#g" id="m" x1="-36.866" x2="68.369" y1="193.663" y2="122.446" gradientUnits="userSpaceOnUse"/><linearGradient xlink:href="#h" id="l" x1="-51.169" x2="18.591" y1="58.491" y2="5.617" gradientUnits="userSpaceOnUse"/><linearGradient xlink:href="#i" id="n" x1="211.933" x2="210.315" y1="114.767" y2="78.061" gradientUnits="userSpaceOnUse"/><linearGradient xlink:href="#j" id="k" x1="3682.381" x2="3682.381" y1="1350.405" y2="256.456" gradientUnits="userSpaceOnUse"/><radialGradient xlink:href="#b" id="r" cx="121.638" cy="324.551" r="120.911" fx="121.638" fy="324.551" gradientTransform="matrix(1.80347 -.0828 .0457 .99512 -125.81 -148.6)" gradientUnits="userSpaceOnUse"/></defs><path d="M1290.328 17.865c-7.553.093-15.188 2.177-21.365 6.614-6.826 4.771-11.591 12.265-13.265 20.4a44.19 44.19 0 0 0 .38 19.455c1.91 7.623 6.45 14.717 13.076 19.061 6.57 4.478 14.667 6.237 22.537 6.03 7.7-.12 15.525-2.21 21.766-6.841 6.463-4.73 11.075-11.87 12.776-19.692 1.488-6.831 1.345-14.055-.604-20.78-2.264-7.752-7.461-14.582-14.265-18.913-6.23-3.968-13.725-5.466-21.036-5.334m-80.154 6.492c-7.418.147-14.696 1.745-21.93 3.25-6.853 1.53-13.598 3.532-20.213 5.876-5.209 1.852-10.195 4.29-14.967 7.05l-2.12 1.176v25.957c3.128.015 6.256.023 9.384.043.56.008 1.457.01 2.147.048 2.253.136 4.6.245 6.69 1.169 1.205 1.419.922 3.43.97 5.161-.01 49.663.013 99.326-.01 148.99-.062 1.611-.154 3.286-.848 4.769-2.593 1.1-5.49.76-8.237.85l-6.529.038c.08 3.96 0 7.926.213 11.881.366 4.855 2.092 9.549 4.764 13.604 1.902 3.014 4.39 5.582 6.76 8.222h70.045c2.811-3.095 5.718-6.169 7.753-9.856.538-.93 1.007-1.896 1.483-2.858 1.808 4.21 4.659 7.886 7.938 11.055.586.528 1.09 1.252 1.726 1.66h71.463c2.684-2.715 5.456-5.405 7.445-8.696 2.733-4.272 4.217-9.286 4.384-14.346.082-3.554.089-7.112.14-10.668-3.859-.06-7.723.046-11.577-.148-1.51-.16-3.12-.37-4.398-1.25-1.012-2.115-.725-4.545-.781-6.821V129.49c1.937.084 4.034-.163 5.987.394.822.328 1.18 1.285 1.69 1.962 2.357 4.087 3.661 8.655 5.373 13.025l44.34 119.547c12.354-.014 24.709.025 37.062-.025 7.036-.128 14.28-1.923 19.882-6.35 4.013-3.15 6.875-7.5 9.295-11.931 3.317-6.194 5.551-12.884 7.57-19.592 9.722-29.777 19.405-59.574 29.145-89.348.869-2.364 1.778-4.822 3.482-6.723 1.52-1.022 3.477-.89 5.232-.938.772-.01 1.543-.017 2.315-.023-5.082 8.722-8.549 18.345-10.408 28.259-2.177 11.617-2.454 23.55-1.325 35.3 1.35 13.64 5.209 27.231 12.647 38.842 8.147 12.856 20.645 22.864 34.943 28.07 12.542 4.618 26.155 5.737 39.406 4.619 8.414-.733 16.765-2.714 24.414-6.344 7.853-3.568 15.387-8.27 21.003-14.917 3.478-4.014 6.568-8.776 7.039-14.198.335-4.37-.925-8.654-2.377-12.725-1.323-4.107-3.585-7.986-6.93-10.77-1.665-1.508-3.326-3.018-4.988-4.528-4.59 3.397-8.994 7.133-14.162 9.646-3.221 1.681-6.67 2.92-10.251 3.559-4.876.881-9.914 1.157-14.823.388-5.203-.831-10.275-3.291-13.694-7.366-3.1-3.968-4.46-8.969-5.347-13.843-.43-.882.298-.79.969-.748 16.865-.011 33.732.02 50.597-.018 6.02-.08 12.24-1.856 16.738-6.009 3.035-2.687 4.994-6.34 6.34-10.115 3.064-8.116 3.72-16.93 3.187-25.529-.638-11.378-3.576-22.83-9.824-32.461-3.903-6.081-9.068-11.303-14.863-15.592-8.92-6.57-19.72-10.282-30.678-11.503-13.829-1.505-28.124.025-41.032 5.352-11.087 4.478-20.96 11.827-28.562 21.044a77.71 77.71 0 0 0-1.884 2.357c.044-4.31-.809-8.572-2.054-12.682a25.506 25.506 0 0 0-7.007-11.528l-1.953-1.99h-62.52c-2.365 2.412-4.889 4.752-6.52 7.756-2.585 4.488-3.585 9.685-4.068 14.786-.275 4.096-.137 8.208-.222 12.31-.272.876.789.439 1.296.547 3.288.065 6.583-.044 9.866.155 1.214.154 2.538.406 3.453 1.269.52 2.716-.682 5.332-1.345 7.912-3.525 12.347-7.104 24.68-10.596 37.036l-3.783 14.396c-1.488-5.55-2.87-11.129-4.425-16.659-3.731-12.411-7.499-24.813-11.207-37.23-.283-1.488-1.028-2.92-.738-4.47.104-.627.074-1.513.836-1.716 2.03-.977 4.348-.534 6.518-.666l5.955-.052c-.082-4.027.014-8.06-.227-12.08a37.16 37.16 0 0 0-4.662-14.811c-1.575-2.821-3.77-5.214-6.071-7.456-.51-.405-.843-1.235-1.61-1.026h-71.512c-2.393 2.41-4.901 4.798-6.598 7.79-.275.622-.415-.62-.667-.857-2.254-4.709-6.74-8.172-11.777-9.433-4.917-1.318-10.071-.898-15.081-.48-10.155 1.067-20.136 3.53-29.763 6.901-6.477 2.37-13.064 4.639-18.96 8.29l-3.244 1.902v26.945c3.147.015 6.293.024 9.44.043.377.007 1.138.01 1.666.031 2.225.1 4.504.214 6.615.983.983 1.535.875 3.475.904 5.23-.01 27.277.016 54.554-.012 81.83-.076 1.496-.176 3.064-.887 4.413-2.33 1.186-5.047.986-7.586 1.042-4.626.018-9.256.075-13.879-.081-1.214-.095-2.458-.244-3.583-.727-1.006-3.155-.59-6.515-.684-9.771-.01-57.464.01-114.927-.01-172.39-.046-5.221-1.266-10.708-4.767-14.74-2.979-3.53-7.383-5.605-11.905-6.261-1.927-.306-3.883-.391-5.831-.362zm-498.1 65.756c-11.909.135-23.977 1.339-35.247 5.396-8.183 3.045-16.023 7.4-22.259 13.585-6.123 6.183-10.748 14.106-12.043 22.79-1.204 7.76.077 16.046 4.357 22.714 3.354 5.374 8.455 9.61 14.347 11.934.849.346 1.72.636 2.593.911-7.446 2.676-14.343 7.102-19.436 13.206-5.978 6.92-9.638 15.686-10.797 24.728-1.012 7.843-.612 15.935 1.7 23.523-2.933-.697-6.185-1.106-8.498-3.222-.87-1.514-.52-3.358-.602-5.028-.01-27.882.017-55.764-.015-83.645-.138-9.38-2.098-18.978-7.179-26.984-4.312-6.872-10.813-12.326-18.323-15.395-9.008-3.742-18.944-4.565-28.603-4.116-9.66.46-19.252 2.722-28.003 6.867-3.95 1.851-7.709 4.124-11.144 6.816-5.68-6.186-13.468-10.121-21.58-12.015-8.032-1.87-16.38-2.145-24.574-1.407-8.126.767-16.123 2.944-23.46 6.535a64.343 64.343 0 0 0-7.289 4.075c-1.982-3.574-5.113-6.45-8.677-8.408-4.076-2.216-8.825-2.856-13.405-2.491-6.543.45-12.963 1.882-19.377 3.178-8.076 1.833-16.12 3.981-23.788 7.145-4.248 1.715-8.271 3.926-12.152 6.351l-1.811 1.092v26.867c3.108.016 6.217.026 9.326.045.588.007 1.516.014 2.235.05 2.161.143 4.415.253 6.411 1.165.843.676.8 1.924.914 2.907.051 11.647.006 23.296.021 34.944-.011 16.463.021 32.927-.018 49.39-.071 1.425-.185 2.903-.815 4.206-2.64 1.101-5.58.793-8.372.873l-6.706.04c.084 4.002.002 8.01.23 12.007.344 3.572 1.193 7.15 2.844 10.351 2.048 3.803 4.882 7.106 7.964 10.106.452.387.82.975 1.321 1.242h68.803c2.85-2.758 5.788-5.51 7.843-8.944.42-.674.814-1.364 1.178-2.07 1.995 3.657 4.662 6.882 7.487 9.922.484.385.749 1.261 1.48 1.092h67.633c2.781-2.797 5.638-5.592 7.65-9.021 2.665-4.369 4.358-9.376 4.484-14.516l.141-10.164c-3.706-.057-7.417.027-11.119-.138-.78-.087-1.579-.198-2.297-.528-1.07-2.56-.762-5.413-.82-8.122l-.002-81.413c3.105-1.6 6.731-2.313 10.2-1.79 1.783.23 3.4 1.18 4.547 2.549 1.81 1.928 1.996 4.764 2.008 7.276.008 31.4-.012 62.8.013 94.199.04 5.665 2.086 11.442 6.237 15.399 2.836 2.797 6.508 4.589 10.325 5.614 8.482 2.5 17.432 2.612 26.194 2.121 5.915-.375 11.88-1.057 17.532-2.918 5.93-1.974 11.545-5.03 16.136-9.301l2.2-1.93v-10.266c4.2 6.941 10.186 12.771 17.207 16.832 9.567 5.667 20.787 8.03 31.826 8.087 10.044.08 20.311-1.493 29.331-6.1a80.697 80.697 0 0 0 6.769-3.756c5.625 5.236 13.031 8.258 20.586 9.306 9.468 1.321 19.185.206 28.294-2.584 6.483-2.12 12.73-5.779 16.673-11.476.603-.871 1.275-1.75 1.715-2.698v-19.115c-2.938-.7-5.919-1.236-8.824-2.06-1.601-.483-3.207-1.513-3.658-3.225-.8-2.553-.4-5.267-.5-7.896-.011-23.974.017-47.948-.017-71.922-.07-4.396-.526-8.794-1.482-13.088 1.39.02 2.807.011 4.152.404 3.359 6.09 5.731 12.654 8.435 19.044 14.103 34.252 28.208 68.503 42.31 102.755h15.447c-2.112 3.981-4.76 7.727-8.183 10.689-2.642 2.378-5.675 4.717-9.31 5.178-4.259.135-8.707-.409-12.478-2.521-2.178-1.177-3.78-3.093-5.335-4.966l-3.05-3.558c-3.054 1.457-6.232 2.673-9.167 4.368-6.304 3.81-10.976 10.147-12.894 17.246-2.14 7.721-1.67 16.319 2.11 23.466 2.999 5.72 7.714 10.488 13.24 13.796 7.65 4.5 16.645 6.037 25.411 6.263 8.978.315 18.102-1.332 26.163-5.378 8.249-4.065 15.174-10.466 20.579-17.85 6.731-9.042 11.854-19.167 16.295-29.495 4.666-10.845 8.445-22.043 11.963-33.305 10.578-32.913 21.128-65.836 31.723-98.743.483-1.4 1.03-2.782 1.728-4.09 3.366.034 6.677.052 9.998.103 1.172.055 2.35.144 3.492.43.01 26.01-.018 52.022.016 78.033.14 10.516 2.414 21.218 7.943 30.268 4.793 7.953 12.002 14.485 20.558 18.157 9.149 3.989 19.378 4.914 29.24 4 9.704-.91 19.243-4.258 27.095-10.09a53.46 53.46 0 0 0 2.463-1.929c2.714 3.44 6.155 6.306 10.09 8.248 6.121 3.172 13.117 4.373 19.967 4.06 7.083-.25 14.149-1.392 20.924-3.48 6.498-2.09 12.8-5.479 17.184-10.829.607-.774 1.397-1.478 1.895-2.292v-19.654c-2.797-.276-5.6-.535-8.328-.816-1.72-.077-3.661-.753-4.336-2.49-1.282-2.766-.771-5.886-.879-8.83-.01-33.56.016-67.12-.012-100.678-.098-5.368-.953-11.029-4.207-15.46-2.463-3.446-6.429-5.467-10.47-6.436-6.524-1.573-13.3-1.419-19.96-1.178-8.353.39-16.697 1.66-24.666 4.24-5.379 1.665-10.812 3.444-15.618 6.44-1.86 1.208-3.554 2.647-5.334 3.964-.998-4.32-3.333-8.51-7.153-10.924-4.173-2.705-9.252-3.402-14.114-3.725-8.493-.426-17.05.102-25.407 1.702-5.701 1.107-11.272 2.819-16.727 4.794a64.313 64.313 0 0 0-3.61 1.473c-1.494-2.236-3.418-4.131-5.189-6.142h-62.707c-2.446 2.71-5.05 5.364-6.701 8.665-2.545 4.768-3.439 10.223-3.747 15.563-.111 3.815-.071 7.632-.118 11.447 3.709.06 7.424-.033 11.129.147.852.096 1.73.22 2.498.623.56 1.862.121 3.848-.176 5.723-1.97 8.786-4.066 17.545-6.085 26.32l-5.401 23.242c-5.31-15.51-10.665-31.005-15.946-46.524-.678-2.304-.836-4.755-.648-7.142.14-.653.18-1.507.7-1.952 2.086-.609 4.294-.3 6.436-.403l5.858-.05c-.081-4.045.001-8.096-.219-12.137-.525-7.174-3.485-14.103-8.203-19.52-1.181-1.35-2.402-2.666-3.597-4.002h-74.866c-2.52 2.818-5.191 5.581-6.926 8.983-1.505 2.772-2.527 5.787-3.187 8.866-5.518-7.614-13.573-13.124-22.315-16.416-11.328-4.306-23.602-5.443-35.636-5.379zm847.43 38.852c1.303.315 2.04 1.608 2.796 2.607 1.148 2.246 1.491 4.805 1.838 7.277.466 4.17.649 8.38.462 12.572-.148.423.141 1.388-.45 1.34h-16.181c.674-6.584 1.79-13.319 5.045-19.175.912-1.678 2.25-3.132 3.985-3.972.768-.4 1.626-.717 2.505-.65m-854.006.5c2.559.405 5.061 1.557 6.84 3.463 1.467 2.233 1.618 5.025 1.718 7.62.02 8.397.002 16.794.008 25.19-6.367-1.255-12.809-2.247-19.304-2.47 5.463-3.691 9.681-9.283 11.374-15.687 1.57-5.946 1.5-12.472-.978-18.167zm313.164 3.68c2.846.064 5.636-.064 8.497.235.916.105 1.83.26 2.716.516v79.163c-2.16 2.157-4.622 4.056-7.353 5.43-1.877.845-4.058 1.153-6.061.615-1.223-2.387-1.296-5.16-1.365-7.788v-78.203zm-546.7 3.433c2.178.003 4.263.994 5.731 2.585 2.138 1.835 2.431 4.867 2.41 7.507-.014 25.649.017 51.298-.017 76.947-.059 1.59-.178 3.22-.773 4.711-2.414.587-4.926.272-7.384.38-3.198-.002-6.402.042-9.597-.108-.466-.14-1.267.019-1.495-.462-.902-3.396-.5-6.946-.595-10.417v-76.81c2.885-2.423 6.54-3.942 10.29-4.297a13.1 13.1 0 0 1 1.43-.036M708.517 204.9c1.903.109 3.758.602 5.548 1.237v15.988c-3.222.972-6.746 1.27-10.027.396-2.188-.574-4.042-2.228-4.781-4.375-.803-2.356-.597-4.932-.154-7.34.29-1.523 1.032-2.986 2.337-3.876 1.963-1.653 4.56-2.237 7.077-2.03" style="font-size:1066.67px;font-family:Calistoga;-inkscape-font-specification:Calistoga;white-space:pre;display:inline;opacity:1;fill:#fff;fill-opacity:1;stroke-width:.264583" transform="translate(81.64 17.908)"/><path d="M1290.36 22.497c-4.482.08-8.985.871-13.121 2.634a29.512 29.512 0 0 0-9.402 6.347 28.625 28.625 0 0 0-6.508 10.453c-1.604 4.501-2.086 9.34-1.833 14.094.245 4.669 1.302 9.338 3.442 13.514a28.128 28.128 0 0 0 5.032 6.98c3.023 2.903 6.702 5.106 10.671 6.446 4.602 1.566 9.52 2.026 14.357 1.78 4.686-.24 9.378-1.262 13.59-3.372 5.885-2.918 10.681-7.957 13.317-13.973 1.892-4.278 2.685-8.98 2.691-13.64.017-4.665-.752-9.375-2.62-13.668-1.446-3.362-3.564-6.425-6.162-9-2.843-2.927-6.369-5.172-10.202-6.564-4.227-1.553-8.767-2.105-13.252-2.031m-80.188 6.492c-4.583.098-9.13.78-13.622 1.655-1.153.23-2.303.47-3.46.682-6.125 1.182-12.165 2.784-18.1 4.702-6.058 1.85-11.98 4.212-17.496 7.339l-1.92 1.066v18.621c2.126.02 4.252.004 6.377.048 2.475.082 4.97.278 7.365.94 1.025.307 2.076.673 2.896 1.385a7.321 7.321 0 0 1 1.86 2.783c.618 1.614.722 3.366.694 5.078v149.29c-.02 2.12-.189 4.274-.89 6.29-.326.884-.755 1.768-1.448 2.423-1.133.928-2.578 1.356-3.992 1.64-1.833.356-3.707.39-5.568.385l-3.674.023c.027 1.882.03 3.766.072 5.648.114 3.317.875 6.626 2.35 9.607 1.42 2.925 3.352 5.581 5.56 7.962l1.13 1.255h65.929c1.278-1.425 2.594-2.822 3.726-4.37a31.066 31.066 0 0 0 3.2-5.335c1.625-3.081 2.41-6.572 2.414-10.048l.061-4.72c-1.938-.018-3.877-.009-5.815-.046-2.008-.075-4.046-.285-5.936-1.002-.702-.285-1.41-.627-1.948-1.17-.758-.918-1.112-2.09-1.378-3.23-.501-2.254-.52-4.576-.505-6.874V46.12c-.02-2.918-.37-5.886-1.5-8.598-.72-1.74-1.802-3.335-3.202-4.598-1.895-1.796-4.365-2.88-6.898-3.416-2.06-.445-4.178-.56-6.28-.52zM712.077 94.744c-7.589.07-15.196.625-22.65 2.094-4.673.928-9.287 2.217-13.686 4.056-5.422 2.292-10.637 5.18-15.162 8.971a40.198 40.198 0 0 0-6.667 7.073c-2.76 3.664-4.92 7.812-6.103 12.256a31.935 31.935 0 0 0-.788 12.544c.53 3.84 1.896 7.569 4.04 10.802a26.796 26.796 0 0 0 3.805 4.566c2.71 2.548 5.99 4.474 9.515 5.654 4.076 1.372 8.426 1.794 12.707 1.581 4.025-.213 8.037-1.133 11.664-2.915 3.801-1.871 7.212-4.617 9.653-8.097 2.037-2.883 3.33-6.264 3.847-9.749.31-2.12.401-4.281.185-6.415a20.4 20.4 0 0 0-3.16-8.98 17.182 17.182 0 0 0-2.374-3.05c2.344-.484 4.754-.616 7.141-.483 2.999.178 6.005.966 8.561 2.578.81.499 1.554 1.093 2.295 1.687 1.51 1.304 2.407 3.167 2.943 5.058.745 2.639.879 5.4.852 8.128v29.62c-3.087-.986-6.266-1.657-9.464-2.165-6.365-1.18-12.84-1.821-19.317-1.713-7.085.1-14.207.846-21.032 2.814-5.479 1.586-10.763 4.014-15.283 7.523-2.27 1.738-4.295 3.78-6.12 5.976a41.124 41.124 0 0 0-7.427 13.519c-1.862 5.693-2.521 11.733-2.319 17.704.198 5.692 1.342 11.376 3.61 16.611 2.111 4.913 5.199 9.385 8.95 13.188a36.932 36.932 0 0 0 3.407 3.097c4.525 3.663 9.726 6.469 15.24 8.33 7.772 2.636 16.067 3.442 24.238 3.108 6.895-.288 13.817-1.494 20.204-4.173a80.318 80.318 0 0 0 6.069-3.01c2.186-1.207 4.316-2.52 6.343-3.98 2.813 3.331 6.39 5.998 10.356 7.8 4.742 2.174 9.955 3.154 15.145 3.38 7.043.314 14.106-.725 20.858-2.707 4.022-1.3 7.935-3.147 11.16-5.918a21.448 21.448 0 0 0 3.84-4.307c.205-.31.453-.607.633-.925v-14.18c-1.512-.348-3.033-.664-4.54-1.034-2.09-.553-4.158-1.465-5.677-3.044-1.367-1.406-2.136-3.29-2.479-5.198-.292-1.52-.298-3.071-.286-4.612 0-24.653.003-49.306-.002-73.958-.034-6.864-1.021-13.794-3.565-20.199-1.865-4.724-4.605-9.111-8.107-12.797-3.678-3.893-8.155-6.982-12.979-9.284-6.338-3.027-13.22-4.768-20.154-5.752-5.933-.837-11.933-1.122-17.92-1.073m-275.545.277c-3.366.024-6.711.486-10.027 1.031-2.004.33-3.994.734-5.986 1.124-6.647 1.236-13.209 2.909-19.67 4.896-5.33 1.692-10.576 3.726-15.47 6.451-1.333.747-2.628 1.559-3.94 2.34v19.644c2.1.018 4.2.002 6.3.045 2.424.081 4.87.276 7.215.937 1.09.32 2.187.748 3.036 1.527 1.17.983 1.79 2.458 2.08 3.927.37 1.77.26 3.588.278 5.384-.001 26.862.002 53.723-.002 80.585-.024 2.063-.203 4.164-.93 6.111-.326.834-.755 1.66-1.418 2.275-1.09.88-2.47 1.294-3.821 1.578-1.985.407-4.019.445-6.037.44l-3.653.022c.03 1.899.033 3.799.078 5.698.12 3.246.836 6.478 2.159 9.448 1.594 2.988 3.666 5.71 6.068 8.093l1.212 1.234h65.076c1.23-1.21 2.496-2.39 3.596-3.724 2.308-2.75 4.077-5.97 5.025-9.44.635-2.272.907-4.636.895-6.993l.053-4.31c-1.852-.02-3.705-.014-5.557-.05-1.585-.072-3.21-.266-4.652-.972-.413-.217-.831-.465-1.135-.825-.784-1.218-1.122-2.658-1.364-4.07-.334-2.05-.344-4.134-.331-6.205v-82.287c2.083-2.213 4.65-3.955 7.454-5.12 3.051-1.298 6.384-2.074 9.713-1.83 2.181.154 4.333.868 6.122 2.138.779.53 1.461 1.182 2.138 1.833 1.52 1.382 2.55 3.245 3.08 5.219.528 1.902.643 3.888.615 5.854-.001 25.33.003 50.66-.002 75.989-.029 2.142-.19 4.315-.862 6.362-.32.92-.74 1.852-1.475 2.515-.857.689-1.956.968-3.017 1.165-1.887.335-3.81.231-5.718.267l-2.246.015c.03 1.898.033 3.796.078 5.694.12 3.245.836 6.476 2.157 9.445a39.114 39.114 0 0 0 5.704 8.025l1.169 1.305h64.127c1.266-1.295 2.57-2.56 3.68-3.995a27.631 27.631 0 0 0 3.492-5.705c1.518-3.138 2.284-6.624 2.286-10.107l.065-4.662c-1.88-.02-3.759-.012-5.638-.05-1.733-.074-3.506-.293-5.092-1.038-.687-.335-1.357-.78-1.76-1.448-.852-1.313-1.22-2.87-1.447-4.4-.328-2.228-.22-4.485-.239-6.728 0-27.829.002-55.657-.002-83.485-.064-.194.125-.264.252-.362 1.822-1.311 3.862-2.33 6.027-2.934 3.12-.92 6.457-1.256 9.671-.658 2.04.38 4.01 1.254 5.556 2.652.484.445.942.917 1.399 1.39 1.52 1.641 2.38 3.789 2.777 5.968.319 1.67.355 3.375.338 5.07 0 31.007-.002 62.014.002 93.021.01 3.097.626 6.243 2.14 8.97 1.36 2.494 3.459 4.554 5.919 5.962a16.706 16.706 0 0 0 3.216 1.448c5.548 1.905 11.432 2.66 17.278 2.77 3.958.05 7.92-.06 11.865-.38 4.195-.355 8.39-.942 12.45-2.078 4.988-1.549 9.819-3.804 13.891-7.112.892-.728 1.742-1.507 2.613-2.26v-13.995c-1.58-.361-3.167-.688-4.741-1.074-2.354-.615-4.689-1.538-6.57-3.117a6.085 6.085 0 0 1-1.927-2.776c-.551-1.546-.614-3.208-.591-4.833-.001-27.998.002-55.995-.002-83.993-.039-6.37-.895-12.803-3.18-18.777-1.7-4.455-4.235-8.609-7.548-12.047-1.621-1.695-3.396-3.247-5.333-4.57-4.249-2.933-9.14-4.833-14.16-5.96-5.57-1.247-11.306-1.608-17.002-1.466-7.588.193-15.177 1.46-22.327 4.044a73.408 73.408 0 0 0-5.987 2.478c-5.004 2.345-9.673 5.431-13.698 9.226-2.64-3.781-6.103-6.972-10.055-9.343-5.069-3.062-10.838-4.804-16.669-5.675-4.619-.688-9.305-.869-13.97-.7-7.107.266-14.206 1.531-20.87 4.052a72.437 72.437 0 0 0-5.825 2.527c-3.882 1.89-7.575 4.178-10.948 6.874-.773-2.615-1.88-5.186-3.649-7.29-.616-.741-1.339-1.382-2.05-2.03a16.762 16.762 0 0 0-7.703-3.8 19.859 19.859 0 0 0-4.05-.394zm863.4.285c-6.068.058-12.102.915-18.036 2.141a142.444 142.444 0 0 0-12.601 3.28c-2.74.847-5.448 1.796-8.126 2.822-3.78 1.358-7.542 2.802-11.135 4.61-1.617.805-3.15 1.765-4.714 2.666v19.68c2.15.02 4.3.003 6.45.05 2.352.08 4.723.257 7.007.863.922.266 1.873.57 2.626 1.19.81.75 1.404 1.713 1.773 2.752.698 1.93.796 4.01.771 6.044v81.19c-.02 2.083-.204 4.204-.94 6.17-.357.901-.838 1.792-1.584 2.43-1.335 1.029-3 1.502-4.636 1.79-1.759.307-3.548.336-5.329.332l-3.648.023c.029 1.933.03 3.868.077 5.801.123 3.348.845 6.7 2.335 9.713 1.406 2.892 3.359 5.499 5.64 7.758l1.177 1.2h67.672c1.265-1.295 2.57-2.56 3.68-3.995 1.746-2.212 3.19-4.682 4.135-7.342.983-2.793 1.375-5.767 1.364-8.72l.05-4.415c-1.922-.019-3.845-.01-5.766-.047-2.22-.082-4.473-.36-6.533-1.232-1.125-.495-2.241-1.173-2.904-2.242-.855-1.359-1.189-2.97-1.37-4.546-.2-1.797-.11-3.608-.13-5.413-.002-35.745 0-71.49 0-107.235-.028-2.934-.357-5.916-1.458-8.657-.638-1.588-1.57-3.065-2.784-4.275-1.786-1.876-4.175-3.095-6.67-3.722-2.084-.531-4.245-.693-6.39-.664zm260.379.282c-8.11.053-16.236 1.236-23.947 3.778a70.354 70.354 0 0 0-14.853 6.88c-6.087 3.78-11.558 8.539-16.185 14.008-4.04 4.76-7.44 10.042-10.27 15.602-3.979 7.737-6.579 16.14-8.024 24.707-1.456 8.596-1.794 17.356-1.371 26.056.504 9.858 2.156 19.72 5.591 29 2.583 7 6.208 13.634 10.875 19.465a62.519 62.519 0 0 0 6.423 6.925 65.286 65.286 0 0 0 16.348 11.16c6.397 3.066 13.279 5.069 20.283 6.144 6.541 1.004 13.19 1.237 19.793.881 6.962-.389 13.923-1.535 20.503-3.888 2.324-.83 4.581-1.833 6.814-2.882 4.826-2.298 9.485-5.036 13.55-8.529 2.085-1.791 3.97-3.807 5.697-5.944 1.775-2.233 3.367-4.675 4.242-7.411a12.5 12.5 0 0 0 .584-4.668c-.158-2.843-.957-5.605-1.931-8.266-.861-2.842-2.132-5.622-4.13-7.852-.815-.912-1.77-1.683-2.661-2.517l-1.25-1.136c-1.611 1.198-3.192 2.438-4.83 3.598a56.432 56.432 0 0 1-5.493 3.409l-.358.192a53.88 53.88 0 0 1-6.588 2.977c-5.55 1.88-11.448 2.604-17.292 2.469-4.397-.123-8.82-.947-12.828-2.805a26.754 26.754 0 0 1-7.724-5.395c-2.615-2.728-4.351-6.174-5.568-9.72-1.486-4.368-2.244-8.947-2.668-13.53-.095-.235.102-.203.274-.194 18.643-.001 37.285.003 55.928-.002 3.515-.014 7.088-.573 10.28-2.1 2.647-1.257 4.96-3.221 6.588-5.663 1.014-1.48 1.713-3.142 2.371-4.802 2.29-5.868 3.233-12.194 3.266-18.472.034-8.099-.933-16.264-3.52-23.964-1.915-5.723-4.758-11.15-8.506-15.888-1.585-2.016-3.34-3.895-5.204-5.655a53.881 53.881 0 0 0-15.511-10.484c-6.836-3.067-14.254-4.702-21.709-5.254a85.941 85.941 0 0 0-6.99-.23m-573.477 1.13c-8.808.07-17.651 1.105-26.111 3.614-2.443.727-4.884 1.465-7.282 2.33-2.813 1.021-5.607 2.15-8.176 3.7-1.032-2.358-2.488-4.522-4.246-6.4l-1.148-1.272h-58.588c-1.116 1.25-2.288 2.46-3.237 3.848-1.722 2.447-2.919 5.247-3.572 8.164-.788 3.346-1.144 6.788-1.125 10.225l-.029 4.205c1.868.02 3.736.014 5.604.052 1.775.074 3.589.298 5.213 1.06.996.462 1.863 1.238 2.324 2.246.66 1.415.757 3.014.706 4.553-.105 2.292-.57 4.55-1.108 6.775l-14.579 62.732c-7.01-20.43-14.025-40.859-21.031-61.29-.51-1.542-.874-3.138-.988-4.76-.187-2.198-.304-4.459.303-6.606.29-1.017.735-2.006 1.397-2.836.916-.977 2.248-1.41 3.531-1.65 1.725-.323 3.486-.224 5.23-.26.808-.008 1.614-.014 2.421-.02-.028-1.945-.029-3.889-.075-5.832-.147-4.172-1.158-8.324-3.045-12.053-1.329-2.66-3.088-5.09-5.111-7.263l-1.166-1.29H782.21c-1.129 1.28-2.315 2.517-3.295 3.92-1.798 2.516-3.09 5.376-3.896 8.358-.89 3.199-1.309 6.522-1.294 9.841l-.04 4.321c1.903.022 3.808.016 5.711.055 1.611.069 3.252.231 4.761.836.662.272 1.322.677 1.645 1.343 1.575 2.696 2.879 5.54 4.135 8.395 1.33 3.054 2.562 6.15 3.84 9.226l42.159 102.384h19.603c-1.898 4.633-4.176 9.147-7.173 13.174a33.902 33.902 0 0 1-4.454 4.917c-2.346 2.248-4.939 4.301-7.904 5.67-1.984.915-4.161 1.47-6.356 1.408-3.805-.034-7.659-.544-11.202-1.987-2.763-1.116-5.278-2.861-7.237-5.113-.848-.985-1.69-1.974-2.536-2.96-1.352.626-2.718 1.222-4.06 1.87-3.281 1.633-6.097 4.123-8.278 7.056-.752 1.01-1.455 2.062-2.017 3.19-1.878 3.621-2.877 7.668-3.059 11.736-.168 3.246.201 6.531 1.217 9.625 1.232 3.808 3.416 7.27 6.16 10.17 2.01 2.122 4.275 4.021 6.796 5.51 4.451 2.656 9.502 4.155 14.6 4.95 3.94.608 7.934.82 11.918.763 5.908-.105 11.82-1.177 17.317-3.368 5.13-2.03 9.86-5.022 13.976-8.688 2.966-2.632 5.616-5.606 7.995-8.775 4.302-5.656 7.891-11.82 11.094-18.154 4.262-8.468 7.83-17.268 11.031-26.186 1.878-5.234 3.61-10.52 5.262-15.83 10.713-33.357 21.422-66.715 32.138-100.072.825-2.468 1.802-4.917 3.26-7.087.51-.726 1.053-1.45 1.753-2.004 1.595-1.213 3.603-1.719 5.566-1.918.054.098.006.308.022.448v2.794c1.967.026 3.934.025 5.9.068 1.95.079 3.926.292 5.766.977.647.272 1.381.537 1.767 1.166.475.856.386 1.87.396 2.813 0 25.723-.003 51.446.002 77.17.036 7.498 1.127 15.068 3.916 22.061 2.06 5.194 5.083 10.014 8.937 14.065a39.339 39.339 0 0 0 12.094 8.668c5.715 2.646 11.993 3.915 18.262 4.214 6.887.32 13.866-.354 20.456-2.439a47.063 47.063 0 0 0 14.875-7.805 50.265 50.265 0 0 0 5-4.483c1.872 3.504 4.496 6.609 7.671 9 1.125.812 2.328 1.514 3.557 2.158 3.82 1.983 8.046 3.136 12.328 3.5 2.756.24 5.528.15 8.285-.027 5.113-.362 10.185-1.254 15.132-2.59 4.192-1.213 8.297-2.893 11.884-5.41a24.779 24.779 0 0 0 4.813-4.413l.902-1.045V232.33c-1.651-.168-3.306-.309-4.956-.494-1.894-.249-3.777-.94-5.213-2.232a7.275 7.275 0 0 1-1.554-1.882c-1.315-2.187-1.795-4.774-1.821-7.298-.01-16.276 0-32.551 0-48.827v-55.691c-.03-3.07-.29-6.173-1.224-9.112-.7-2.195-1.852-4.297-3.589-5.842-1.527-1.362-3.445-2.197-5.387-2.78-3.003-.879-6.136-1.2-9.25-1.363-3.372-.156-6.75-.102-10.12.043-7.646.359-15.302 1.413-22.62 3.71-4.012 1.19-8.01 2.48-11.822 4.22-1.972.907-3.894 1.957-5.592 3.318l-1.46 1.117v19.297c2.046.025 4.093.021 6.14.065 2.337.085 4.697.319 6.929 1.052.767.278 1.584.548 2.174 1.139.54.577.565 1.422.56 2.168v81.919c-2.127 2.5-4.688 4.603-7.442 6.378-2.187 1.484-4.724 2.512-7.375 2.716-1.503.105-3.043.05-4.494-.386-1.038-.307-2.014-.929-2.586-1.868-.999-1.602-1.474-3.465-1.775-5.312-.353-2.191-.386-4.417-.37-6.631v-93.818c-.027-3.04-.26-6.11-1.12-9.038-.65-2.192-1.722-4.317-3.406-5.898-1.338-1.256-2.994-2.131-4.729-2.706-2.675-.885-5.494-1.228-8.295-1.422-2.021-.135-4.048-.168-6.073-.153zm340.527 3.359c-2.509 2.507-4.31 5.667-5.401 9.03-.824 2.52-1.418 5.121-1.68 7.762-.218 2.015-.164 4.044-.196 6.067-.01.637-.012 1.274-.017 1.91 1.86.022 3.72.017 5.58.056 1.574.074 3.186.272 4.62.966.606.29 1.135.723 1.557 1.245 1.28 1.454 2.211 3.173 3.053 4.906 1.283 2.668 2.228 5.477 3.27 8.242l44.332 119.526c10.977-.002 21.955.004 32.932-.003 4.175-.032 8.398-.607 12.294-2.162 3.258-1.294 6.242-3.32 8.539-5.978 2.436-2.845 4.396-6.066 6.049-9.419 2.375-4.821 4.176-9.904 5.717-15.046.448-1.534.977-3.042 1.462-4.565 9.388-28.791 18.771-57.584 28.162-86.375.855-2.506 1.849-4.993 3.301-7.22.746-1.115 1.622-2.203 2.826-2.846 1.682-.915 3.623-1.195 5.513-1.274 1.841-.034 3.683-.032 5.525-.053-.027-1.967-.024-3.934-.072-5.901-.118-3.051-.664-6.08-1.56-8.997-.8-3.315-2.327-6.48-4.602-9.037-.686-.768-1.43-1.48-2.144-2.221h-58.638c-1.07 1.104-2.199 2.162-3.112 3.406-1.846 2.441-3.067 5.316-3.74 8.292a42.04 42.04 0 0 0-1.2 10.198l-.035 4.264c1.854.02 3.709.013 5.563.051 2.072.085 4.196.431 6.023 1.463.571.33 1.103.729 1.602 1.16.936.86 1.335 2.139 1.463 3.371.148 1.395.01 2.804-.218 4.182-.168.947-.46 1.864-.742 2.781-3.657 12.76-7.32 25.518-10.975 38.278l-8.49 32.301c-2.847-10.827-5.69-21.656-8.54-32.483-3.842-12.75-7.69-25.497-11.529-38.247-.215-1.032-.507-2.046-.82-3.05-.15-.901-.201-1.817-.132-2.727.1-1.477.382-3.015 1.26-4.243.494-.715 1.248-1.182 1.995-1.594 1.709-.921 3.677-1.235 5.6-1.211l4.429-.04c-.027-1.887-.03-3.775-.072-5.662-.118-3.352-.853-6.667-2.044-9.797-1.254-3.47-3.168-6.736-5.793-9.349l-1.323-1.344h-68.23l-1.36 1.387zm232.123 24.247c1.34.024 2.644.532 3.7 1.347 1.053.79 1.892 1.819 2.658 2.878.846 1.123 1.33 2.468 1.736 3.8.857 2.958 1.224 6.031 1.467 9.093.208 2.891.29 5.792.256 8.69-.058 2.288-.326 4.606-1.161 6.752-.052.142-.067.34-.256.353-.824.239-1.692.13-2.537.155h-22.394c.31-4.894.808-9.79 1.84-14.59a46.466 46.466 0 0 1 2.502-8.043c.946-2.247 2.08-4.453 3.688-6.302 1.002-1.163 2.275-2.054 3.603-2.806 1.492-.827 3.176-1.383 4.898-1.327m-851.553 75.918c2.34.041 4.658.504 6.87 1.258 1.33.425 2.642.92 3.894 1.542v22.125a25.817 25.817 0 0 1-3.862 1.59c-3.405.883-7 1.208-10.48.592-2.238-.4-4.417-1.3-6.154-2.787-.875-.747-1.601-1.657-2.219-2.623-1.262-1.992-1.84-4.357-1.885-6.7-.033-2.374.168-4.786.931-7.048.555-1.646 1.49-3.194 2.845-4.303 1.731-1.57 3.842-2.741 6.128-3.26 1.286-.303 2.613-.414 3.932-.386" style="font-size:1066.67px;font-family:Calistoga;-inkscape-font-specification:Calistoga;white-space:pre;display:inline;opacity:1;fill:#030202;fill-opacity:1;stroke-width:.264583" transform="translate(81.64 17.908)"/><path d="M2613.1 1101.837q-39.467 0-68.267-10.667-27.733-11.733-27.733-44.8v-355.2q0-34.134-19.2-52.268-18.134-19.2-49.067-19.2-17.067 0-35.2 6.4-17.067 6.4-30.934 19.2 1.067 4.267 1.067 8.534v326.401q0 30.933 12.8 44.8 12.8 12.8 40.533 12.8 0 17.067-7.466 32-6.4 13.867-18.134 25.6h-227.2q-10.667-11.733-18.134-25.6-6.4-14.933-6.4-32 27.734 0 38.4-12.8 11.734-13.867 11.734-44.8V691.169q0-34.133-20.267-52.267-19.2-19.2-46.934-19.2-20.266 0-41.6 9.6-21.333 9.6-36.266 27.734v323.2q0 30.934 10.666 44.8 11.734 12.8 38.4 12.8 0 33.068-25.6 57.601h-231.467q-11.734-11.733-19.2-25.6-6.4-14.933-6.4-32 32 0 45.867-12.8 13.866-13.867 13.866-44.8V667.702q0-27.733-16-40.533-14.933-12.8-55.467-12.8v-46.934q24.534-14.933 61.867-26.666 38.4-11.734 73.6-18.134 36.267-7.466 55.467-7.466 21.334 0 35.2 13.866 14.934 12.8 19.2 54.4 27.734-30.933 69.334-49.066 42.667-19.2 96-19.2 106.667 0 138.667 71.466 27.734-34.133 71.467-52.266 44.8-19.2 99.2-19.2 76.801 0 114.134 37.333 38.4 37.333 38.4 108.8v318.935q0 24.533 13.867 37.333 13.867 12.8 38.4 18.133v30.934q-19.2 17.067-50.133 26.667-30.934 8.533-81.067 8.533m354.133 1.067q-80 0-130.134-43.734-49.067-44.8-49.067-114.133 0-69.334 44.8-112 45.867-42.668 140.8-42.668 30.934 0 65.067 6.4 34.134 5.334 55.467 17.067V671.97q0-44.8-23.467-61.867-22.4-18.133-55.466-18.133-35.2 0-57.6 17.067 21.333 7.466 30.933 23.466 9.6 14.934 9.6 33.067 0 35.2-25.6 56.534-24.534 20.266-60.8 20.266-40.534 0-65.067-23.466-24.534-24.534-24.534-60.8 0-36.267 24.534-68.268 24.533-33.066 75.733-54.4 52.267-21.333 134.4-21.333 214.401 0 214.401 169.6V966.37q0 51.2 49.067 61.867v34.133q-13.866 20.267-46.933 30.934-33.067 9.6-64 9.6-72.534 0-102.4-50.134-21.334 19.2-56.534 35.2-35.2 14.934-83.2 14.934m69.333-86.4q14.934 0 30.934-4.267 16-5.333 26.666-12.8V895.97q-10.666-7.467-27.733-12.8-16-5.334-32-5.334-27.734 0-48 18.134-20.267 17.066-20.267 54.4 0 28.8 19.2 48 19.2 18.134 51.2 18.134m494.932 39.466-164.267-398.934q-12.8-30.934-22.4-46.934-9.6-16-42.667-16 0-18.133 5.333-35.2 5.334-17.067 17.067-29.867h251.734q25.6 27.734 25.6 65.067-26.666 0-38.4 13.867-10.666 13.867-10.666 35.2 0 7.467 1.066 17.067 1.067 8.533 4.267 18.133l99.2 289.068 70.4-302.935q3.2-14.933 3.2-25.6 0-44.8-52.266-44.8 0-18.133 4.266-35.2 4.267-17.067 16-29.867h205.868q11.733 12.8 16 29.867 5.333 17.067 5.333 35.2-26.667 0-41.6 12.8-13.867 12.8-23.467 42.667l-121.6 378.668q-46.934 151.467-101.334 221.867-53.333 70.4-137.6 70.4-66.134 0-99.2-27.733-33.067-27.733-33.067-66.134 0-25.6 11.733-45.866 12.8-20.267 32-28.8 28.8 34.133 85.334 34.133 32 0 65.067-32 34.133-30.934 56.533-98.134zm614.4 46.934q-74.668 0-116.268-45.867-41.6-45.867-41.6-123.734V639.97q0-18.133-13.867-25.6-13.866-7.467-38.4-7.467V559.97q13.867-11.734 57.6-24.534 44.8-13.866 100.268-13.866 41.6 0 54.4 9.6 13.866 9.6 13.866 46.933v358.401q0 32 10.667 49.067t37.333 17.067q22.4 0 42.667-13.867 21.334-13.867 35.2-32V639.969q0-18.133-16-25.6-16-7.467-43.733-7.467V559.97q14.933-11.734 58.667-24.534 43.733-13.866 103.467-13.866 41.6 0 56.533 9.6 14.934 9.6 14.934 46.933v392.535q0 25.6 12.8 42.667 13.866 17.066 38.4 19.2v29.866q-17.067 20.267-54.4 30.934-36.267 9.6-70.4 9.6-35.2 0-61.868-18.134-25.6-19.2-34.133-54.4-52.267 72.534-146.134 72.534m637.865-7.467q-11.733-12.8-18.133-26.667-6.4-13.866-6.4-30.933 30.933 0 44.8-12.8 13.866-13.867 13.866-45.867V412.768q0-24.533-13.866-38.4-13.867-14.933-58.667-14.933v-42.667q26.667-14.933 61.867-25.6 36.267-11.734 71.467-18.134 35.2-7.466 58.667-7.466 24.533 0 35.2 10.666 11.733 10.667 11.733 37.334V979.17q0 33.067 12.8 45.867 13.867 12.8 45.867 12.8 0 17.067-7.467 30.933-6.4 13.867-18.133 26.667zm454.4-653.869q-45.867 0-73.6-26.666-26.667-27.734-26.667-73.6 0-44.8 27.733-72.534 28.8-27.734 74.667-27.734 46.934 0 73.6 27.734 27.734 27.733 27.734 72.533 0 45.867-28.8 73.6-27.734 26.667-74.667 26.667m-119.467 653.87q-11.734-11.734-18.134-25.601-6.4-13.867-6.4-32 30.934 0 45.867-12.8 14.933-13.867 14.933-45.867V669.836q0-27.734-13.866-41.6-12.8-13.867-56.534-13.867v-46.934q16-9.6 49.067-21.333 33.067-12.8 71.467-21.333 39.467-8.534 70.4-8.534 24.534 0 35.2 11.734 10.667 10.666 10.667 37.333v414.935q0 32 16 44.8 16 12.8 46.934 12.8 0 18.133-6.4 32t-18.134 25.6zm478.932 7.466-168.533-454.402q-10.667-28.8-22.4-41.6-11.734-13.867-39.467-13.867 0-17.066 5.333-34.133 5.333-18.133 17.067-29.867h243.2q11.734 11.734 18.134 29.867 6.4 17.067 6.4 34.133-21.333 0-36.267 11.734-13.866 11.733-13.866 36.267 0 4.266 1.066 10.666 2.134 6.4 3.2 11.734l43.734 145.067 49.066 186.667 49.067-186.667 41.6-145.067q2.134-6.4 3.2-12.8 1.067-7.467 1.067-12.8 0-22.4-14.933-33.067-14.934-11.734-40.534-11.734 0-17.066 4.267-34.133 4.267-18.133 16-29.867h206.934q11.733 11.734 16 29.867 5.333 17.067 5.333 34.133-27.733 0-41.6 13.867-12.8 12.8-22.4 41.6L5817.363 988.77q-17.067 58.667-39.467 86.4-21.334 27.734-69.334 27.734zm656.002 2.133q-119.467 0-190.934-75.734-70.4-75.733-70.4-211.2 0-92.8 35.2-160 35.2-68.268 94.934-104.534 60.8-36.267 137.6-36.267 96 0 153.6 56.533 58.668 55.467 58.668 156.8 0 40.534-13.867 71.468-12.8 29.867-54.4 29.867h-230.4q3.2 84.266 38.4 119.467 36.266 35.2 93.866 35.2 36.267 0 67.2-10.667 30.934-11.733 57.6-32 9.6 8.533 14.934 26.667 6.4 17.066 6.4 28.8 0 17.066-24.533 42.667-23.467 24.533-68.267 43.733-43.734 19.2-105.6 19.2m-80-354.134h107.734q18.133 0 22.4-13.867 5.333-13.867 5.333-34.134 0-68.266-17.066-89.6-16-22.4-38.4-22.4-18.134 0-36.267 13.867-18.134 13.867-29.867 49.067-11.734 34.133-13.867 97.067" aria-label="mayu live" style="font-size:1066.67px;font-family:Calistoga;-inkscape-font-specification:Calistoga;white-space:pre;fill:url(#k)" transform="matrix(.26458 0 0 .26458 -13.7 -18.746)"/><g style="display:inline"><g style="display:inline"><path d="M16.543-71.885c-4.274.138-8.575.018-12.809.727-7.04 1.007-13.877 3.046-20.59 5.35-5.48 2.121-10.595 5.064-15.67 7.998-4.759 3.138-9.282 6.628-13.649 10.286-2.733 2.55-5.416 5.596-5.988 9.423-.134 3.27.941 6.74 3.528 8.878 2.953 2.534 7.24 2.898 10.857 1.786 2.515-.625 5.028-1.264 7.569-1.776.222-.041 1.094-.22 1.581-.297 3.815-.661 7.739-.903 11.583-.403 2.678.994 5.412 2.025 7.727 3.729 1.988 1.544 3.842 3.268 5.335 5.303a15.544 15.544 0 0 1 3.376 9.472c.117 4.606-.761 9.164-.872 13.763-6.186 3.52-12.175 7.384-18.027 11.431-10.022 7.406-19.137 15.943-28.05 24.625-8.729 9.835-16.34 20.586-23.842 31.363-3.028 5.22-6.125 10.402-9.108 15.647-5.472 10.32-9.153 21.446-12.817 32.499-3.085 11.247-5.082 22.793-6.009 34.415.115 10.222-.064 20.522 1.743 30.626 1.08 6.226 2.434 12.402 3.772 18.576 2.318 9.849 6.174 19.237 9.9 28.615 3.126 6.83 6.2 13.686 9.359 20.5 3.335 6.233 6.612 12.5 9.983 18.712 3.984 6.665 7.917 13.36 11.932 20.004-8.94 3.811-17.119 9.387-23.902 16.349-9.755 9.928-16.735 22.29-21.595 35.258-1.27 4.888-2.709 9.87-2.424 14.973.195 3.332 1.716 6.705 4.57 8.569 1.633 1.104 3.544 1.83 5.525 1.89 5.415.488 10.854.09 16.273-.074 10.873-.637 21.626-2.487 32.334-4.395 9.796-2.12 19.17-6.185 27.438-11.848.512-.31 1.113.41 1.662.533A638.56 638.56 0 0 0 .997 356.96c8.351 3.239 17.161 5.183 26.027 6.354 7.333.9 14.813 1.337 22.143.18 4.048-.692 8.26-1.938 11.265-4.878 1.87-1.914 2.512-4.689 2.331-7.296.159-4.713-.901-9.37-2.189-13.874-3.021-9.942-8.238-19.137-14.693-27.245-5.18-6.425-11.786-11.57-18.818-15.822a135.621 135.621 0 0 0-10.958-5.914l-6.683-2.455c3.26-7.743 8.493-14.544 14.735-20.123 3.114-2.807 6.284-5.57 9.771-7.91 4.372-3.045 9.071-5.57 13.662-8.258 6.012-3.326 12.217-6.293 18.453-9.173 12.333-5.55 24.654-11.125 36.939-16.781 4.115-1.917 8.281-3.73 12.365-5.712 7.447-3.889 14.93-7.711 22.354-11.643l12.95-7.166c2.814 2.194 5.578 4.463 8.425 6.611 12.12 7.383 24.392 14.592 37.332 20.456 6.756 2.98 13.735 5.748 21.104 6.705 4.787.598 9.992.125 14.037-2.725 3.925-2.693 6.134-7.202 7.22-11.72.367-1.687.27-3.447.323-5.169-.139-10.081-2.427-20.064-6.08-29.435-3.144-7.986-7.404-15.55-12.764-22.262 10.579-.406 21.256-1.38 31.408-4.544 5.234-1.61 10.17-4.064 14.778-7.007 2.128-1.322 4.534-2.849 7.02-2.867 7.043-.37 14.136-.92 20.956-2.832 1.872-.534 3.772-1.044 5.566-1.793 4.036-2.195 7.832-4.992 10.567-8.73a35.997 35.997 0 0 0 4.112-7.166c1.175-4.357.44-9.044-1.48-13.077-2.1-4.539-5.298-8.434-8.181-12.482-4.147-5.097-10.08-8.363-16.195-10.52-4.998-1.826-10.212-2.99-15.216-4.792-4.846-2.107-8.735-5.79-13.083-8.706-.004-5.774-.492-11.595-2.156-17.148-2.652-9.66-6.23-19.158-11.548-27.685-4.298-6.681-9.32-12.866-14.532-18.848-5.67-6.195-12.642-10.97-19.515-15.71-7.384-4.498-14.944-8.766-22.912-12.15-8.652-3.4-17.765-5.524-26.95-6.86-9.702-.955-19.43-2.066-29.196-1.774-9.801-.167-19.502 1.813-29.304 1.597-7.043-6.521-13.182-13.926-19.848-20.815-2.457-2.416-5.21-4.508-7.8-6.777-1.744-1.446-3.388-3.024-5.345-4.187-2.386-1.545-4.692-3.222-7.131-4.682-3.445-1.866-6.857-3.803-10.321-5.625-3.882-1.431-7.742-2.93-11.637-4.319-4.11-.939-8.21-1.947-12.328-2.842-4.479-.405-8.954-.898-13.434-1.249m11.371 15.19c3.611.872 7.253 1.645 10.845 2.58 2.845 1.11 5.744 2.102 8.556 3.288 2.728 1.48 5.527 2.838 8.21 4.396 2.22 1.446 4.522 2.773 6.687 4.295 2.877 2.338 5.818 4.604 8.654 6.987 7.753 7.886 15.011 16.245 22.894 24.004 1.911 1.763 3.765 3.75 6.21 4.76.637.283 1.282.5 1.978.305 3.318-.361 6.64-.688 9.964-.986.67-.06 1.661-.14 2.454-.208 2.429-.203 4.86-.37 7.292-.529.445-.022 1.265-.072 1.854-.104a275.458 275.458 0 0 1 17.592-.448c.336.002 1.2.017 1.739.024.615.012 1.302.014 1.728.031 5.276.148 10.254.33 15.543 1.15a108.67 108.67 0 0 1 13.41 2.826c.336.102 1.087.305 1.586.458 5.999 1.75 11.815 4.098 17.418 6.854 6.786 2.325 12.291 7.101 17.878 11.422 1.609 1.284 3.296 2.48 4.922 3.732 5.082 5.55 11.15 10.263 15.306 16.612 1.063 1.587 1.774 3.373 2.891 4.925 4.882 7.767 8.17 16.42 10.641 25.223.086.332.316 1.159.458 1.68.286.997.579 1.992.518 3.04l.09 1.857c-6.458-1.313-13.138.399-18.955 3.238-4.392 1.132-8.74 2.457-12.963 4.12.53.658.453 1.024-.437 1l-2.488.466c.862-.734-.17-.149-.624.037-1.464.457-3.028.595-4.53.928-3.337.654-6.701 1.195-10.02 1.92-5.022 1.5-10.016 3.101-15.056 4.537-12.932 3.318-26.39 3.922-39.68 3.395-6.074-.16-12.188-1.007-18.239-.06-1.377.234-2.799.377-4.128.783l-10.204 5.626c3.814 1.14 7.617 2.363 11.438 3.451 2.311.006 4.63-.18 6.937-.045 2.576.241 5.21.363 7.636 1.36 3.135 1.252 5.907 3.226 8.85 4.852 6.11 3.538 12.19 7.128 18.317 10.634 6.128 2.902 12.212 5.899 18.368 8.739 9.987 4.461 20.313 8.1 30.648 11.658 9.988 3.689 20.498 5.747 31.044 7.025-5.737 1.33-11.646 1.68-17.52 1.744-.353-.004-1.2.002-1.742 0-1.434.014-3.072-.023-4.374-.032l-7.854-.16c-2.481 1.75-4.89 3.613-7.544 5.1-15.504 9.386-30.99 18.801-46.506 28.167-4.817 2.635-9.613 5.31-14.528 7.759-8.624 4.425-17.23 8.882-25.927 13.16-8.318 4.132-16.613 8.311-24.945 12.412-10.8 4.736-21.624 9.42-32.409 14.19-12.74 6.166-25.298 12.945-36.42 21.774-5.627 4.454-10.936 9.325-15.804 14.6-4.675 5.605-8.122 12.18-10.494 19.064-.866 2.638-1.596 5.339-1.986 8.087.704.04 1.582-.1 2.352-.13l-1.433 4.167c1.306 2.367 3.862 3.588 6.305 4.454 4.863 1.863 9.755 3.663 14.6 5.566 8.08 4.259 15.551 9.7 21.98 16.195 3.826 4.093 5.62 9.503 7.858 14.521 1.757 4.327 3.146 8.84 3.76 13.478-6.677.91-13.466.405-20.107-.569-8.757-1.366-17.353-3.835-25.449-7.452-.264-.12-.973-.435-1.414-.647a87.206 87.206 0 0 1-7.275-3.83c3.884-8.673 5.584-18.473 3.966-27.896l-5.373-10.485c-1.267 3.748-2.618 7.482-3.833 11.24a81.547 81.547 0 0 1-.094 3.286c-.022.25-.057 1.076-.102 1.557-.448 5.466-1.363 11.01-3.735 16-.642 1.261-1.248 2.563-2.315 3.53-3.313 3.625-7.797 5.829-12.14 7.962a67.384 67.384 0 0 1-12.371 4.597c-5.879 1.645-11.91 2.642-17.923 3.654-1.458.236-2.92.451-4.381.663-.366.052-1.19.16-1.731.234-5.654.496-11.33.747-17.002.958-.992-.03-2.137.054-3.03.095 2.06-8.018 5.048-15.801 8.964-23.098 3.496-6.91 7.985-13.497 14.172-18.27 5.705-4.444 12.315-7.506 18.832-10.545l11.984-4.378c-5.088-8.869-10.356-17.63-15.654-26.375-2.079-3.518-4.294-6.963-6.07-10.65-3.553-6.997-7.223-13.936-10.69-20.977-3.323-6.866-6.396-13.857-9.038-21.014-2-5.176-3.712-10.46-5.102-15.833a573.22 573.22 0 0 1-1.417-5.222c-.095-.36-.298-1.163-.435-1.692-1.26-4.771-2.206-9.618-2.898-14.502-.838-5.507-1.82-11.032-1.84-16.618.107-3.32.198-6.64.386-9.955.017-.285.08-1.198.114-1.724.25-4.31.888-8.586 1.747-12.815 1.025-5.364 2.027-10.747 3.49-16.012 2.001-5.985 3.864-12.025 6.241-17.877.13-.295.454-1.097.663-1.586 3.013-6.768 6.398-13.371 10.052-19.815 2.107-3.705 4.298-7.366 6.768-10.841 3.068-4.468 6.08-8.978 9.182-13.419 4.655-5.175 9.273-10.387 13.951-15.54 4.176-3.823 8.315-7.692 12.514-11.485 3.365-2.437 6.678-4.951 10.076-7.34C-4.547 21.368.722 18.177 6.192 15.35a124.76 124.76 0 0 1 8.163-4.128c.277-.854.534-1.715.823-2.565 5.184-1.789 10.337-3.671 15.51-5.496C25.22 1.856 19.769.475 14.29-.78c-.244-.348-.017-1.11-.096-1.605-.018-3.498.037-7.001-.027-10.496-.509-4.212-1.252-8.516-3.412-12.237-1.947-3.768-4.626-7.117-7.732-9.993a30.508 30.508 0 0 0-6.95-5.007c-2.499-1.384-5.097-2.668-7.842-3.464-5.434-.886-11.017-1.108-16.459-.153 2.244-1.408 4.41-2.952 6.705-4.271 2.704-1.315 5.415-2.65 8.246-3.672 3.84-1.293 7.648-2.694 11.51-3.918a86.494 86.494 0 0 1 10.228-1.999c2.749-.057 5.503-.253 8.249-.222zM236.936 83.697c4.489.298 8.471 2.65 12.297 4.815 1.88 1.09 3.816 2.104 5.587 3.392 8.696 5.728 18.57 9.361 28.554 12.124 6.402 2.092 11.442 7.108 14.862 12.773.548 1.183 1.733 1.985 1.986 3.32.507 1.928-.246 4.02-1.667 5.373-1.369 2.733-4.25 4.216-6.945 5.357-6.35 2.5-13.225 3.271-19.996 3.576-12.992.47-25.983-1.187-38.669-3.905-23.082-5.029-45.28-13.868-65.77-25.59-.732-.23-.785-.592-.062-.867 7.751-1.893 15.437-4.171 22.772-7.336l-2.012-4.374 7.975-.22-2.885 3.183c1.952-.966 3.884-1.997 5.662-3.261 3.019-.105 6.054-.125 9.063-.283 8.419-3.003 16.756-6.619 25.704-7.706 1.158-.296 2.35-.43 3.544-.37m-30.903 84.022c5.632 5.89 9.777 13.078 12.572 20.706 2.448 6.639 4.158 13.524 5.664 20.429.434 2.587.89 5.344.033 7.893-.471 1.446-2.218 1.622-3.513 1.63-4.17-.104-8.153-1.569-12.01-3.034a127.993 127.993 0 0 1-6.592-2.831c-.431-.207-1.199-.558-1.76-.82-4.553-2.202-9.12-4.378-13.669-6.59-7.486-3.736-14.398-8.524-20.895-13.776 2.696-1.421 5.481-2.683 8.117-4.215 5.733-3.48 11.504-6.904 17.215-10.419 4.71-3.235 9.448-6.43 14.14-9.69z" style="display:inline;opacity:1;fill:#fff;fill-opacity:1;stroke-width:.264583" transform="translate(108.742 75.956)"/><path d="m-93.49 168.614 5.018-42.426 16.423-41.969 23.265-34.214 34.67-31.933L5.502 6.667 8.24-18.879C-.377-27.116-6.666-36.516-26.887-38.951l-15.51 5.93-4.106-7.299 28.74-17.791 46.075-5.93 37.407 15.054 34.67 35.126 75.727 1.369 49.268 29.196c17.482 19.29 24.76 40.934 26.46 63.866 10.909 8.745 23.095 14.938 37.406 16.879l17.792 20.072-18.248 20.984-26.002 1.825-52.006 13.686-78.008 46.53-53.83 26.003-160.577-7.299z" style="display:inline;fill:#f05a93;fill-opacity:1;stroke-width:.264583" transform="translate(108.742 75.956)"/><path d="m209.612 84.678 36.708 17.247c17.953 8.03 33.936 14.676 52.846 6.328l-9.177-10.284-22.31-6.329-25.631-14.714c-11.635 1.212-22.036 4.48-32.436 7.752" style="display:inline;fill:#fff;fill-opacity:.809689;stroke:none;stroke-width:.264583" transform="translate(108.742 75.956)"/><path d="m97.018 168.392 126.054-14.241 26.645-2.643 15.577-10.815-39.254-5.231-28.823-9.209-62.926-30.367c-10.595.107-20.276.093-25.62 6.145-17.071 16.897-16.518 23.611-21.528 33.54l-9.854 23.522z" style="display:inline;fill:#fff;fill-opacity:1;stroke:none;stroke-width:.264583" transform="translate(108.742 75.956)"/><path d="M-91.804 152.852c5.14-6.446 10.904-12.625 14.391-21.666 3.93-10.935 7.384-26.444 14.195-37.619 11.55-20.214 24.528-36.938 42.322-52.679l23.25-16.41C26.5 8.365 37.291 6.244 56.342-.062L8.244 5.829l-31.575 18.978-28.466 28.793-22.086 35.174-14.887 39.754Z" style="display:inline;fill:#f684b7;fill-opacity:1;stroke:none;stroke-width:.264583" transform="translate(108.742 75.956)"/><path d="m-52.191 57.923 2.206 1.615c.994.743 1.617.445 2.088-.276l9.415-11.228 9.14-9.06 9.022-7.368 10.992-7.485 14.064-7.643L20.81 8.44c5.056-1.868 10.112-3.12 15.167-4.61L8.44 6.393l-31.28 18.792-20.368 18.438Z" style="display:inline;fill:url(#l);stroke:none;stroke-width:.264583" transform="translate(108.742 75.956)"/><path d="M168.219 99.76c7.056 6.684 16.246 10.848 26.134 14.185 11.978 4.357 24.328 7.226 36.822 9.52 13.58 2.891 29.15 4.484 48.675 3.498 9.493.492 18.442-.785 26.912-8.744l-2.818 11.659-22.151 8.064-47.606-1.166-43.914-12.63-42.748-23.997z" style="display:inline;fill:#c93b71;fill-opacity:1;stroke:none;stroke-width:.264583" transform="translate(108.742 75.956)"/><path d="M-37.847-36.303c10.955-6.77 21.053-9.718 33.777-6.473C21.14-33.848 44.85.288 70.449-5.546l20.76-2.75.071 2.678-19.985 2.815c-8.789 1.898-18.397 4.944-26.32 5.63L3.812 9.301 8.033-15.05-2.24-31.94l-16.326-5.63Z" style="display:inline;fill:#d03572;fill-opacity:1;stroke:none;stroke-width:.264583" transform="translate(108.742 75.956)"/><path d="M-44.164-35.605c11.784-5.089 17.141-13.026 32.624-18 37.568-13.926 67.255 7.579 90.203 35.897l5.932 6.443 5.113 3.989c.752.638 1.39.466 2.142-.022l10.029-5.092-16.261-17.59-22.91-21.682-30.373-11.761-31.09-.102-25.057 7.67-17.08 12.682z" style="fill:#f8bed7;fill-opacity:1;stroke:none;stroke-width:.264583" transform="translate(108.742 75.956)"/><path d="M-38.04 196.814c5.748-3.842 10.845-7.855 18.008-12.303 8.01-5.29 15.837-10.671 24.266-15.752 10.513-6.701 19.077-14.795 28.097-22.563 6.627-4.985 11.975-10.318 20.86-14.687l16.817-7.876-8.302-6.811-30.439 19.796-34.909 30.226-31.929 21.073z" style="display:inline;fill:url(#m);stroke:none;stroke-width:.264583" transform="translate(108.742 75.956)"/><path d="m-34.048 280.134 20.206-7.686 15.593 17.35 32.284 18.009 12.08 14.495 8.784 22.84.22 9.444-27.453 1.318-37.116-10.981-6.37-3.075-17.788 10.322-30.528 5.71-27.892.88-3.294-4.174 8.565-22.62 16.032-24.599 26.794-15.153" style="display:inline;fill:#f2508f;fill-opacity:1;stroke-width:.264583" transform="translate(108.742 75.956)"/><path d="m87.35-4.364 8.034-.307c10.962-1.813 20.701-1.32 31.643-.72 13.576 1.117 22.364 5.334 34.61 10.608l18.967 9.979 16.63 11.236c26.569 19.205 19.36 5.728 11.227-12.731-.606-1.677 2.454-4.27 4.505-4.978L197.324-3.772l-29.036-8.45-37.036-3.956-27.872 4.398c-5.472 4.184-11.327 2.822-16.03 7.416" style="display:inline;fill:#f9cfe2;fill-opacity:1;stroke:none;stroke-width:.264583" transform="translate(108.742 75.956)"/><path d="M251.428 68.243c-5.674-1.847-10.875-2.09-15.484-.32-6.737 2.04-12.474 4.702-18.118 7.423-9.393 5.715-15.507 9.62-23.146 13.41l-16.761 6.464-28.813 5.747 21.23 13.09 29.691 13.01 33.602 10.774 28.334 1.756 27.217-.718 19.474-12.93-2.314-4.15c-5.053 6.521-11.498 8.285-18.198 9.178-11.52.962-23.04.36-34.56-.16-11.726-.37-23.206-1.726-34.24-4.868-10.34-2.812-20.768-5.475-30.17-9.897-8.78-4.252-17.093-9.105-24.902-14.606 7.634.732 16.833-2.19 26.1-5.268 5.271-1.836 12.613-6.892 18.995-10.456l17.24-5.746L237.3 77.74l15.325.798z" style="display:inline;fill:url(#n);stroke:none;stroke-width:.264583" transform="translate(108.742 75.956)"/><path d="M12.758 297.751c5.362 4.347 10.724 7.68 16.086 13.274 3.003 2.883 5.22 6.355 7.296 9.933 2.302 5.531 6.416 12.606 6.593 18.987l2.901 15.56 9.23-1.32-.879-14.855-11.34-21.185-17.317-16.262Z" style="display:inline;fill:url(#o);stroke-width:.264583" transform="translate(108.742 75.956)"/><path d="M-88.29 352.701c5.427-5.934 10.099-12.472 17.376-16.926l22.768-12.433L-9.5 308.513l-30.857-13.032-21.869 14.08-20.671 28.31z" style="display:inline;fill:url(#p);stroke-width:.264583" transform="translate(108.742 75.956)"/><path d="m152.488 189.512 19.256 15.631 27.411 13.592 24.693 8.156 4.757-.453 3.172-9.062-1.586-19.935-7.702-20.615-15.405-20.616z" style="display:inline;fill:#a01f5d;fill-opacity:1;stroke-width:.264583" transform="translate(108.742 75.956)"/><path d="M208.98 156.961c-.557 10.715.332 21.701-6.373 31.264-4.192 8.144-11.096 16.289-17.15 24.433l-23.371-13.203-8.954-9.561z" style="display:inline;fill:url(#q);fill-opacity:1;stroke-width:.264583" transform="translate(108.742 75.956)"/><path d="M-10.911 305.634c-2.658.885-5.703 4.266-9.122 5.954l-25.463 9.248c-7.447 3.483-14.76 7.167-21.537 11.655l-4.94 4.18c8.477-4.27 16.512-9.646 25.59-12.415 8.605-3.065 14.71-5.297 21.41-7.727 3.296-.299 4.314 1.682 4.94 4.054 2.67 9.104.515 16.921-1.773 24.703l7.825-5.393 23.486 11.216 33.316 4.747 9.582-2.285c-.65-2.753-1.909-5.303-3.253-7.824-1.731-3.692-4.66-7.384-8.263-11.076-3.904-3.894-9.65-6.866-14.856-10.109-4.466-1.658-8.946-3.301-13.185-5.187-3.612-1.523-7.156-3.047-9.846-4.57-3.387-1.745-6.362-2.872-9.287-3.924-.42-2.048.421-4.433-4.624-5.247" style="display:inline;fill:#c7366f;fill-opacity:1;stroke-width:.264583" transform="translate(108.742 75.956)"/><path d="M-28.777 291.774c-10.843 5.482-20.33 12.32-29.43 19.547-18.622 15.74-23.413 31.479-32.284 47.218l-3.953-3.074 10.542-31.406 20.205-20.864 21.523-11.42z" style="display:inline;fill:#f6bed7;fill-opacity:1;stroke-width:.264583" transform="translate(108.742 75.956)"/><path d="m-43.5 191.66 4.77 8.857 13.285 6.132 16.352-1.022-12.264 69.154-15.33 7.836-12.945-59.276z" style="display:inline;fill:#da407b;fill-opacity:1;stroke-width:.264583" transform="translate(108.742 75.956)"/><path d="M198.992 27.732c1.046 4.249 23.594 15.863 21.582 6.525-1.348-7.41-5.357-14.29-8.654-21.791l-.469-3.078c-2.709.797-4.4 2.016-2.743 4.617l6.401 17.072c1.762 6.638-2.58 3.632-6.017 3.098" style="display:inline;fill:#fff;fill-opacity:.228374;stroke:none;stroke-width:.264583" transform="translate(108.742 75.956)"/></g><g style="display:inline"><path d="m-12.796 207.366-6.682 14.876c-6.096 14.965-6.806 29.435-7.318 45.42l.159 9.944c1.152 3.179 2.9 6.308 3.133 9.563 4.305-2.233 6.284-2.84 8.067-3.308 2.595-.805 4.581-.985 6.686-.652 1.196.243 1.784.746 2.398 1.238 1.585 2.506 1.92 5.735 3.739 8.193 1.29 1.1 2.083 1.21 3.124 1.812l4.83-20.346 15.512-15.432 27.762-18.853 31.42-14.08 35.08-16.147 38.74-20.444 31.023-17.182 27.428-20.503c-12.411-.82-21.984-1.803-34.349-3.122-19.13-.946-37.419 6.517-56 10.261-29.571 9.335-45.386 8.727-36.507-17.182L67.864 159.4l-23.387 19.568-38.58 22.671-16.068 4.614" style="display:inline;fill:url(#r);fill-opacity:1;stroke-width:.264583" transform="translate(108.742 75.956)"/><path d="M-23.663 287.166c3.837-13.442 7.76-20.764 16.17-21.415 8.429 1.352 9.398 6.39 6.668 11.637-3.17 4.112-3.202 4.097-5.1 7.574-4.768-4.32-11.576.368-17.738 2.204" style="display:inline;fill:#fff;fill-opacity:1;stroke:none;stroke-width:.264583" transform="translate(108.742 75.956)"/><path d="m-2.12 292.213-.854-9.477 10.586-14.377-5.397 26.07Z" style="display:inline;fill:#53b2cc;fill-opacity:1;stroke-width:.264583" transform="translate(108.742 75.956)"/><path d="M85.121 143.054c-.801 4.575-2.83 6.523-5.568 10.174l-5.43 9.418-5.913 7.562-6.805 7.08-11.343 9.9-12.374 11.204-16.773 15.261-8.318 6.737-26.604-13.06 25.298-8.113 26.466-14.642 24.679-19.248 18.698-18.836m-37.449 140.95 2.745-6.012" style="display:inline;fill:url(#s);fill-rule:nonzero;stroke-width:.264583" transform="translate(108.742 75.956)"/></g><g style="display:inline"><path d="M40.516 130.616c4.338-3.986 9.067-7.731 12.708-12.694 3.2-4.827 6.057-12.142 9.536-14.048 3.552.186 6.873.835 9.165 3.543 2.439 2.19 4.411 5.241 3.35 8.605-11.66 3.917-23.517 8.095-34.76 14.594M-37.693 196.357c12.064 6.342 24.185 1.388 35.955-2.635 11.365-3.39 22.037-8.723 32.39-15.033 8.527-4.56 15.846-10.893 22.3-17.667 7.204-6.332 13.801-13.272 20.474-20.147l9.454-9.299 4.185-5.734 2.634 4.184-12.398 19.528-21.387 21.542-26.656 18.287L2.29 201.471l-16.737 5.27-13.483-1.24-11.934-5.58z" style="display:inline;fill:#b8346c;fill-opacity:1;stroke-width:.264583" transform="translate(108.742 75.956)"/><path d="m13.993 150.144-5.944-15.84c-3.024-6.633-6.129-12.362-9.896-19.538-2.818-4.57-6.305-9.46-11.96-13.084-26.429-18.445-47.596 8.119-52.849 15.658-4.885 7.286-7.362 14.572-10.439 21.857l-6.524 15.66c-2.598 6.447-5.75 6.25-8.808 7.176l2.283 25.445 11.092 35.232 15.985 35.559 20.37 35.339 14.824-1.16c-9.542-27.644-17.776-62.86-13.99-95.835l15.333-15.333 34.906-25.445" style="display:inline;fill:#b8346c;fill-opacity:1;stroke-width:.264583" transform="translate(108.742 75.956)"/></g><g style="display:inline"><path d="M-.31-65.746c-10.655 1.873-20.255 6.437-29.564 11.732-5.408 3.526-16.723 11.42-17.656 16.32-.07 5.026 3.475 6.766 7.366 6.08 8.588-2.14 15.039-3.947 24.056-2.885 3.091 1.1 6.166 2.302 9.118 4.24 2.032 1.668 4.086 3.21 5.983 5.692 8.21 9.745 3.883 18.501 4.136 29.651-7.082 3.868-13.343 7.971-19.467 12.113-41.653 29.435-62.44 71.858-72.487 101.83-3.01 10.886-4.913 22.026-5.876 33.269.137 22.801.372 24.688 4.7 45.02 2.11 10.697 6.247 20.644 10.216 30.736l9.22 20.25 9.764 18.351 11.3 18.984 3.345 5.424c1.06 2.25-30.182 5.386-47.551 51.258-3.13 11.41-3.65 17.553 2.44 19.346 5.308.654 10.67.21 16.002.09 10.612-.55 21.016-2.342 31.46-4.158 2.096-.365 15.954-3.078 29.109-13.018l7.232 3.435 9.853 4.52c16.304 6.564 46.452 10.384 54.603 2.983 1.3-1.334 1.178-2.903 1.131-4.43.164-3.165-.49-6.318-1.208-9.473-3.327-13.615-11.703-25.282-16.406-30.61-7.533-8.182-16.25-13.3-26-18.194l-8.468-3.108c-2.601-.89-1.944-2.476-1.473-4.074 4.018-10.072 10.185-17.873 18.41-24.87 5.617-5.18 11.966-9.202 18.544-12.863 6.664-4.05 13.72-7.37 20.702-10.705l22.193-10.014 28.085-12.863 22.082-11.47 16.519-9.14 10.377 8.196c54.837 33.65 68.926 31.564 72.846 15.356 1.02-12.599-3.549-36.5-19.741-55.122-1.698-2.079-1.737-3.605-1.16-4.926 48.643-.28 48.228-14.034 59.755-14.542 7.913-.469 15.142-.803 24.638-4.103 5.35-2.988 8.969-5.894 12.393-13.144 2.027-8.05-4.416-14.98-8.683-21.138-7.098-8.741-18.838-10.355-28.91-13.786-6.206-2.315-11.087-7.362-16.755-10.788.056-5.766-.094-11.51-1.625-17.106-2.443-9.273-5.76-18.388-10.663-26.674-3.959-6.382-8.768-12.34-13.634-18.057-5.516-6.461-12.52-11.175-19.422-16.009-7.028-4.313-14.347-8.413-21.898-11.715-8.339-3.344-17.031-5.351-25.892-6.72-9.463-.912-19.016-2.07-28.538-1.777-10.586-.233-21.057 2.1-31.618 1.524-13.969-11.717-6.044-9.309-32.083-31.378-5.747-4.253-12.046-7.552-18.295-10.977-7.3-3.348-15-5.046-22.768-6.854-9.97-1.498-19.818-1.515-29.737.29m28.982 4.472c7.045 1.12 13.588 3.535 20.212 6.04 5.464 2.574 10.532 5.785 15.624 9.003 25.302 20.304 30.99 33.564 37.135 35.528 17.48-1.906 35.08-2.983 52.65-1.794 13.815 1.216 27.426 4.952 39.858 11.147 9.275 3.187 16.21 10.332 24.107 15.847 6.29 6.909 14.095 12.643 18.226 21.226 6.47 9.757 10.404 20.834 13.254 32.12-.086 3.003 1.007 9.139-1.33 9.566-6.666-3.295-14.202-1.483-20.535 1.676-7.618 1.949-15.033 4.418-21.866 8.374 8.672-3.1 17.275-6.806 26.481-7.933 8.443-2.114 15.912 3.297 22.927 7.181 8.362 5.95 17.943 9.662 27.752 12.445 8.457 2.117 15.148 8.523 19.414 15.901 3.442 3.733 3.102 9.523-.239 13.149-9.64 17.805-82.512 17.154-149.633-26.701 3.664.347 10.746.84 11.784-1.572 19.81-4.63 29.81-10.059 32.452-12.427l-14.683 4.466c-15.407 4.047-30.221 4.379-45.35 3.632-7.54-.372-10.275-.813-17.748.692l6.608-.115 5.087.483c5.556.943 7.92 2.769 12.94 5.67l19.195 11.17 16.896 8.08c10.128 4.601 20.518 8.331 30.962 11.881 15.205 5.706 29.877 7.25 48.038 8.791-14.213 10.194-30.907 9.459-47.792 9.103l-3.781 2.7-49.155 29.788-9.346 5.11-21.843 11.21-34.41 17.151-32.372 14.15c-20.3 9.838-35.325 18.71-50.827 35.084-5.378 6.19-10.07 15.99-11.476 23.89-1.02 3.158 2.54 4.081 3.697 4.59l15.068 5.714c8.697 4.579 15.736 9.675 22.782 16.477 4.357 4.325 6.336 9.088 8.673 14.67 3.675 7.899 5.993 18.29 4.868 21.13-10.475 3.253-40.496 1.43-64.78-14.587.548-.776 8.112-13.745 5.465-28.858-.032 6.061-.791 13.465-3.114 19.908-1.102 2.965-1.907 4.147-2.803 5.876-2.43 2.953-4.714 4.975-8.036 7.01-3.934 2.37-7.548 4.04-11.038 5.556-4.872 2.068-9.844 3.33-14.826 4.52-6.472 1.31-13.013 2.48-19.707 3.345a419.02 419.02 0 0 1-16.725.903c-3.23-.135-9.752 1.235-8.498-2.17.315-6.176 2.702-13.36 9.232-25.61 10.493-17.459 19.42-25.105 36.06-32.878l7.173-2.622c-5.656-9.832-11.66-19.41-17.298-29.019l-10.758-20.973a277.061 277.061 0 0 1-8.588-18.803c-2.421-6.263-4.901-12.496-6.69-19.075-2.077-7.594-4.29-15.144-5.424-23.052-.955-6.218-2.083-12.366-2.26-18.894.236-7.202.355-14.404 1.537-21.606 1.267-6.83 2.505-13.67 4.249-20.34C-75.135 95.704-55.076 40.58 10.55 7.9c.225-.72.42-1.342.93-2.265.536-1.19 1.98-1.203 3.023-1.632a13.445 13.445 0 0 0-4.302-.4c-.699.01-.925-.505-.813-1.395l.175-3.194V-12.37c-.395-3-.762-6.001-2.092-9.002-1.252-2.564-2.718-5.088-4.82-7.493-1.88-2.063-3.87-4.057-6.331-5.75-2.733-1.644-5.53-3.243-8.945-4.414-13.038-2.065-17.895.883-28.575 2.846-1.576-.002-2.427-.427-1.452-1.917l5.576-4.879 6.156-4.53 6.558-4.249c23.129-11.959 39.36-10.866 53.033-9.516M205.774 161c13.884 12.551 18.473 27.081 22.532 44.602 7.452 31.002-24.669 12.57-39.818 5.48-12.39-5.704-20.853-12.119-31.02-20.681l13.349-6.79 17.517-10.573 13.658-9.337z" style="display:inline;fill:#000;stroke-width:.264583" transform="translate(108.742 75.956)"/><path d="m46.129 127.573-5.644 3.877-7.46 6.626-9.227 8-13.251 12.122-10.062 8.049c-9.334 7.154-19.276 13.431-29.005 20.024-13.748 10.004-11.118 15.928 5.35 17.717 9.21.39 17.317-1.343 25.893-4.105l11.455-5.072 7.853-4.172 13.448-8c13.618-7.595 24.612-18.652 36.362-28.717 17.06-19.64 9.308-15.819 17.798-23.66-1.877 10.3-6.58 17.828-13.67 25.335l-9.816 9.767-8.884 7.901L45 182.737l-10.208 6.724-11.975 7.166a108.88 108.88 0 0 1-31.705 11.582c-15.934.75-50.086-1.953-22.821-25.423l5.644-4.171 8.589-5.399c9.66-6.206 18.535-13.505 27.625-20.498 6.261-5.479 12.118-11.562 19.098-16.114l9.766-5.595" style="display:inline;fill:#000;stroke-width:.264583" transform="translate(108.742 75.956)"/></g><g style="display:inline"><path d="M119.47 47.01c-3.938 2.457-5.814 5.738-7.017 9.288-1.592 4.426-.275 8.02 1.96 11.352 1.839 3.342 7.349 10.75 19.71 9.7 3.982-.022 7.782-1.498 10.94-4.54 3.318-2.849 5.646-6.275 5.675-11.042.459-3.301-.494-6.744-2.786-10.32-10.895-13.319-25.074-6.863-28.482-4.437" style="display:inline;fill:#153164;fill-opacity:1;stroke-width:.264583" transform="translate(108.742 75.956)"/><path d="M127.789 47.156c-3.145 1.23-4.867 1.418-7.785 4.01-1.715 2.692-1.91 6.145-2.733 9.283l4.054 8.013 7.07 3.394 7.353.283 6.787-3.205 3.206-6.6-.66-6.22-2.781-4.95c-1.496-1.394-2.076-3.154-5.28-3.865-2.062-.523-4.175-.746-6.363-.519z" style="display:inline;fill:#1a3671;fill-opacity:1;stroke-width:.264583" transform="translate(108.742 75.956)"/><path d="M116.816 58.183c-.482 9.317 6.45 14.262 11.632 15.04 3.965.359 7.93.762 11.97-1.652 5.163-3.116 8.222-9.895 5.676-15.685-.708-1.718-1.808-3.122-2.89-4.541l-2.992-2.373c.878 1.736 1.352 3.05 2.443 5.337 2.86 4.447 2.796 8.96-.792 13.031-4.242 4.196-10.717 4.818-15.995 2.477-.554-.248-8.458-3.93-7.43-12.384.217-1.074-.334-1.88.526-4.066" style="display:inline;fill:url(#t);stroke-width:.264583" transform="translate(108.742 75.956)"/><path d="M76.747 116.185a5.9 4.72 0 0 1-5.9 4.72 5.9 4.72 0 0 1-5.9-4.72 5.9 4.72 0 0 1 5.9-4.72 5.9 4.72 0 0 1 5.9 4.72" style="display:inline;fill:#fbfdff;stroke-width:.255098" transform="matrix(.86196 -.50698 .6399 .76846 108.742 75.956)"/></g></g></svg>